<svg id="Layer_1" data-name="Layer 1" xmlns="http://www.w3.org/2000/svg" xmlns:xlink="http://www.w3.org/1999/xlink" viewBox="0 0 800 400"><defs><style>.cls-1,.cls-12,.cls-13{fill:none;}.cls-2{fill:#231f20;}.cls-3{fill:#e65848;}.cls-4{opacity:0.1;fill:url(#USGS_20_Scrub);}.cls-5{fill:#eb796d;}.cls-6{fill:#fff;}.cls-7{fill:#a7a9ac;}.cls-8{fill:#fdc536;}.cls-9{fill:#2ab69d;}.cls-10{fill:#d1d3d4;}.cls-11{fill:#808285;}.cls-12,.cls-13{stroke:#d1d3d4;stroke-miterlimit:10;}.cls-12{stroke-width:0.5px;}.cls-14{opacity:0.75;}.cls-15{fill:#5d6069;}.cls-16{fill:#343844;}.cls-17{fill:#b08414;}.cls-18{fill:#208976;}.cls-19{fill:#a4e1ef;}.cls-20{fill:#fedc86;}.cls-21{fill:#1cb5d7;}.cls-22{fill:#1588a1;}</style><pattern id="USGS_20_Scrub" data-name="USGS 20 Scrub" width="72" height="72" patternUnits="userSpaceOnUse" viewBox="0 0 72 72"><rect class="cls-1" width="72" height="72"/><path class="cls-2" d="M17,74.55a1.3,1.3,0,0,1-.92-2.22,1.36,1.36,0,0,1,1.84,0,1.3,1.3,0,0,1,0,1.84A1.3,1.3,0,0,1,17,74.55Z"/><path class="cls-2" d="M27.75,74.55a1.3,1.3,0,0,1-.92-2.22,1.36,1.36,0,0,1,1.84,0,1.3,1.3,0,0,1-.92,2.22Z"/><path class="cls-2" d="M23.25,7.05a1.34,1.34,0,0,1-.92-.38,1.3,1.3,0,0,1,0-1.84,1.36,1.36,0,0,1,1.84,0,1.32,1.32,0,0,1,.38.92,1.34,1.34,0,0,1-.38.92A1.32,1.32,0,0,1,23.25,7.05Z"/><path class="cls-2" d="M14.5,9.05a1.3,1.3,0,0,1-.92-2.22,1.36,1.36,0,0,1,1.84,0,1.34,1.34,0,0,1,.38.92,1.32,1.32,0,0,1-.38.92A1.3,1.3,0,0,1,14.5,9.05Z"/><path class="cls-2" d="M14.75,4.8a1.34,1.34,0,0,1-.92-.38,1.3,1.3,0,0,1,0-1.84,1.35,1.35,0,0,1,1.84,0,1.34,1.34,0,0,1,.38.92,1.3,1.3,0,0,1-1.3,1.3Z"/><path class="cls-2" d="M17.75,8.8a1.3,1.3,0,0,1-.92-2.22,1.36,1.36,0,0,1,1.84,0,1.3,1.3,0,0,1-.92,2.22Z"/><path class="cls-2" d="M20,5.3a1.34,1.34,0,0,1-.92-.38,1.3,1.3,0,0,1,0-1.84,1.36,1.36,0,0,1,1.84,0A1.3,1.3,0,0,1,20,5.3Z"/><path class="cls-2" d="M29,6.3a1.34,1.34,0,0,1-.92-.38,1.3,1.3,0,0,1,0-1.84,1.36,1.36,0,0,1,1.84,0A1.3,1.3,0,0,1,29,6.3Z"/><path class="cls-2" d="M25,4.55a1.34,1.34,0,0,1-.92-.38,1.3,1.3,0,0,1,0-1.84,1.35,1.35,0,0,1,1.84,0A1.3,1.3,0,0,1,25,4.55Z"/><path class="cls-2" d="M17,2.55a1.32,1.32,0,0,1-.92-.38,1.32,1.32,0,0,1-.38-.92,1.32,1.32,0,0,1,.38-.92,1.36,1.36,0,0,1,1.84,0,1.32,1.32,0,0,1,.38.92,1.32,1.32,0,0,1-.38.92A1.3,1.3,0,0,1,17,2.55Z"/><path class="cls-2" d="M27.75,2.55a1.34,1.34,0,0,1-.92-.38,1.34,1.34,0,0,1-.38-.92,1.34,1.34,0,0,1,.38-.92,1.36,1.36,0,0,1,1.84,0,1.32,1.32,0,0,1,.38.92,1.32,1.32,0,0,1-.38.92A1.32,1.32,0,0,1,27.75,2.55Z"/><path class="cls-2" d="M31.75,3.55a1.34,1.34,0,0,1-.92-.38,1.3,1.3,0,0,1,0-1.84,1.36,1.36,0,0,1,1.84,0,1.3,1.3,0,0,1,0,1.84A1.32,1.32,0,0,1,31.75,3.55Z"/><path class="cls-2" d="M29,6.3a1.34,1.34,0,0,1-.92-.38,1.3,1.3,0,0,1,0-1.84,1.36,1.36,0,0,1,1.84,0A1.3,1.3,0,0,1,29,6.3Z"/><path class="cls-2" d="M28.25,9.05a1.3,1.3,0,0,1-.92-2.22,1.35,1.35,0,0,1,1.84,0,1.3,1.3,0,0,1-.92,2.22Z"/><path class="cls-2" d="M26.25,12.05a1.3,1.3,0,0,1-.92-2.22,1.36,1.36,0,0,1,1.84,0,1.3,1.3,0,0,1,0,1.84A1.32,1.32,0,0,1,26.25,12.05Z"/><path class="cls-2" d="M22.25,10.3a1.34,1.34,0,0,1-.92-.38,1.3,1.3,0,0,1,0-1.84,1.36,1.36,0,0,1,1.84,0,1.3,1.3,0,0,1-.92,2.22Z"/><path class="cls-2" d="M22,13.8a1.34,1.34,0,0,1-.92-.38,1.3,1.3,0,0,1,0-1.84,1.36,1.36,0,0,1,1.84,0A1.3,1.3,0,0,1,22,13.8Z"/><path class="cls-2" d="M17,12.8a1.34,1.34,0,0,1-.92-.38,1.3,1.3,0,0,1,0-1.84,1.36,1.36,0,0,1,1.84,0A1.3,1.3,0,0,1,17,12.8Z"/><path class="cls-2" d="M20.25,16.05a1.34,1.34,0,0,1-.92-.38,1.3,1.3,0,0,1,0-1.84,1.36,1.36,0,0,1,1.84,0,1.3,1.3,0,0,1-.92,2.22Z"/><path class="cls-2" d="M22.75,19.8a1.34,1.34,0,0,1-.92-.38,1.3,1.3,0,0,1,0-1.84,1.36,1.36,0,0,1,1.84,0,1.3,1.3,0,0,1-.92,2.22Z"/><path class="cls-2" d="M25.5,20.55a1.3,1.3,0,0,1-1.3-1.3,1.34,1.34,0,0,1,.38-.92,1.36,1.36,0,0,1,1.84,0,1.34,1.34,0,0,1,.38.92,1.3,1.3,0,0,1-1.3,1.3Z"/><path class="cls-2" d="M28.5,18.8a1.3,1.3,0,0,1-.92-2.22,1.36,1.36,0,0,1,1.84,0,1.3,1.3,0,0,1,0,1.84A1.3,1.3,0,0,1,28.5,18.8Z"/><path class="cls-2" d="M28,15.55a1.3,1.3,0,0,1-.92-2.22,1.36,1.36,0,0,1,1.84,0A1.3,1.3,0,0,1,28,15.55Z"/><path class="cls-2" d="M30,13.3a1.3,1.3,0,0,1-.92-2.22,1.36,1.36,0,0,1,1.84,0,1.3,1.3,0,0,1,0,1.84A1.3,1.3,0,0,1,30,13.3Z"/><path class="cls-2" d="M34.25,13.3a1.3,1.3,0,0,1-.92-2.22,1.36,1.36,0,0,1,1.84,0,1.3,1.3,0,0,1-.92,2.22Z"/><path class="cls-2" d="M32.5,18.05a1.34,1.34,0,0,1-.92-.38,1.3,1.3,0,0,1,0-1.84,1.35,1.35,0,0,1,1.84,0,1.3,1.3,0,0,1-.92,2.22Z"/><path class="cls-2" d="M34.75,21.55a1.3,1.3,0,0,1-.92-2.22,1.36,1.36,0,0,1,1.84,0,1.34,1.34,0,0,1,.38.92,1.3,1.3,0,0,1-1.3,1.3Z"/><path class="cls-2" d="M31.25,21.8a1.3,1.3,0,0,1-.92-2.22,1.36,1.36,0,0,1,1.84,0,1.3,1.3,0,0,1,0,1.84A1.3,1.3,0,0,1,31.25,21.8Z"/><path class="cls-2" d="M27.75,22.55a1.34,1.34,0,0,1-.92-.38,1.32,1.32,0,0,1-.38-.92,1.34,1.34,0,0,1,.38-.92,1.36,1.36,0,0,1,1.84,0,1.3,1.3,0,0,1-.92,2.22Z"/><path class="cls-2" d="M37.25,17.05a1.3,1.3,0,0,1-.92-2.22,1.36,1.36,0,0,1,1.84,0,1.3,1.3,0,0,1,0,1.84A1.32,1.32,0,0,1,37.25,17.05Z"/><path class="cls-2" d="M32,9.8a1.3,1.3,0,0,1-.92-2.22,1.36,1.36,0,0,1,1.84,0,1.3,1.3,0,0,1,0,1.84A1.3,1.3,0,0,1,32,9.8Z"/><path class="cls-2" d="M34,6.8a1.3,1.3,0,0,1-.92-2.22,1.36,1.36,0,0,1,1.84,0,1.3,1.3,0,0,1,0,1.84A1.3,1.3,0,0,1,34,6.8Z"/><path class="cls-2" d="M36.75,3.3A1.3,1.3,0,0,1,35.45,2a1.32,1.32,0,0,1,.38-.92,1.36,1.36,0,0,1,1.84,0,1.3,1.3,0,0,1,0,1.84A1.32,1.32,0,0,1,36.75,3.3Z"/><path class="cls-2" d="M37.5,6.55a1.3,1.3,0,0,1-.92-2.22,1.35,1.35,0,0,1,1.84,0,1.3,1.3,0,0,1,0,1.84A1.32,1.32,0,0,1,37.5,6.55Z"/><path class="cls-2" d="M37.25,9.55a1.34,1.34,0,0,1-.92-.38,1.3,1.3,0,0,1,0-1.84,1.36,1.36,0,0,1,1.84,0,1.3,1.3,0,0,1,0,1.84A1.32,1.32,0,0,1,37.25,9.55Z"/><path class="cls-2" d="M37.5,13.3a1.3,1.3,0,0,1-.92-2.22,1.36,1.36,0,0,1,1.84,0,1.3,1.3,0,0,1,0,1.84A1.32,1.32,0,0,1,37.5,13.3Z"/><path class="cls-2" d="M41,5.05a1.34,1.34,0,0,1-.92-.38,1.3,1.3,0,0,1,0-1.84,1.36,1.36,0,0,1,1.84,0A1.3,1.3,0,0,1,41,5.05Z"/><path class="cls-2" d="M41.75,8.8a1.34,1.34,0,0,1-.92-.38,1.3,1.3,0,0,1,0-1.84,1.36,1.36,0,0,1,1.84,0,1.3,1.3,0,0,1-.92,2.22Z"/><path class="cls-2" d="M41.25,12.8a1.34,1.34,0,0,1-.92-.38,1.3,1.3,0,0,1,0-1.84,1.35,1.35,0,0,1,1.84,0,1.32,1.32,0,0,1,.38.92,1.34,1.34,0,0,1-.38.92A1.32,1.32,0,0,1,41.25,12.8Z"/><path class="cls-2" d="M41.5,17.3a1.34,1.34,0,0,1-.92-.38,1.3,1.3,0,0,1,0-1.84,1.36,1.36,0,0,1,1.84,0,1.3,1.3,0,0,1-.92,2.22Z"/><path class="cls-2" d="M43,20.8a1.34,1.34,0,0,1-.92-.38,1.3,1.3,0,0,1,0-1.84,1.35,1.35,0,0,1,1.84,0A1.3,1.3,0,0,1,43,20.8Z"/><path class="cls-2" d="M38.25,20.55a1.34,1.34,0,0,1-.92-.38,1.3,1.3,0,0,1,0-1.84,1.36,1.36,0,0,1,1.84,0,1.3,1.3,0,0,1-.92,2.22Z"/><path class="cls-2" d="M39.5,25.05a1.34,1.34,0,0,1-.92-.38,1.3,1.3,0,0,1,0-1.84,1.36,1.36,0,0,1,1.84,0,1.3,1.3,0,0,1-.92,2.22Z"/><path class="cls-2" d="M35.25,24.8a1.34,1.34,0,0,1-.92-.38,1.3,1.3,0,0,1,0-1.84,1.36,1.36,0,0,1,1.84,0,1.3,1.3,0,0,1-.92,2.22Z"/><path class="cls-2" d="M47,22.3a1.3,1.3,0,0,1-.92-2.22,1.36,1.36,0,0,1,1.84,0,1.3,1.3,0,0,1,0,1.84A1.3,1.3,0,0,1,47,22.3Z"/><path class="cls-2" d="M46,18.8a1.34,1.34,0,0,1-.92-.38,1.3,1.3,0,0,1,0-1.84,1.36,1.36,0,0,1,1.84,0A1.3,1.3,0,0,1,46,18.8Z"/><path class="cls-2" d="M45,15.3a1.3,1.3,0,0,1-.92-2.22,1.36,1.36,0,0,1,1.84,0,1.3,1.3,0,0,1,0,1.84A1.3,1.3,0,0,1,45,15.3Z"/><path class="cls-2" d="M45.25,11.3a1.3,1.3,0,0,1-.92-2.22,1.36,1.36,0,0,1,1.84,0,1.3,1.3,0,0,1-.92,2.22Z"/><path class="cls-2" d="M45,7.05a1.34,1.34,0,0,1-.92-.38,1.3,1.3,0,0,1,0-1.84,1.36,1.36,0,0,1,1.84,0A1.3,1.3,0,0,1,45,7.05Z"/><path class="cls-2" d="M44.75,3.8a1.3,1.3,0,0,1-1.3-1.3,1.32,1.32,0,0,1,.38-.92,1.36,1.36,0,0,1,1.84,0,1.3,1.3,0,0,1,0,1.84A1.3,1.3,0,0,1,44.75,3.8Z"/><path class="cls-2" d="M49.75,2.8a1.34,1.34,0,0,1-.92-.38,1.3,1.3,0,0,1,0-1.84,1.36,1.36,0,0,1,1.84,0,1.3,1.3,0,0,1,0,1.84A1.32,1.32,0,0,1,49.75,2.8Z"/><path class="cls-2" d="M49,7.05a1.3,1.3,0,0,1-.92-2.22,1.36,1.36,0,0,1,1.84,0A1.3,1.3,0,0,1,49,7.05Z"/><path class="cls-2" d="M52.5,7.05a1.34,1.34,0,0,1-.92-.38,1.32,1.32,0,0,1-.38-.92,1.34,1.34,0,0,1,.38-.92,1.36,1.36,0,0,1,1.84,0,1.3,1.3,0,0,1-.92,2.22Z"/><path class="cls-2" d="M52.25,10.55a1.34,1.34,0,0,1-.92-.38A1.32,1.32,0,0,1,51,9.25a1.34,1.34,0,0,1,.38-.92,1.36,1.36,0,0,1,1.84,0,1.3,1.3,0,0,1,0,1.84A1.32,1.32,0,0,1,52.25,10.55Z"/><path class="cls-2" d="M48.5,10.3a1.34,1.34,0,0,1-.92-.38,1.3,1.3,0,0,1,0-1.84,1.36,1.36,0,0,1,1.84,0A1.32,1.32,0,0,1,49.8,9a1.3,1.3,0,0,1-.38.92A1.32,1.32,0,0,1,48.5,10.3Z"/><path class="cls-2" d="M48.75,14.8a1.34,1.34,0,0,1-.92-.38,1.3,1.3,0,0,1,0-1.84,1.36,1.36,0,0,1,1.84,0,1.3,1.3,0,0,1-.92,2.22Z"/><path class="cls-2" d="M52.25,14.8a1.34,1.34,0,0,1-.92-.38,1.3,1.3,0,0,1,0-1.84,1.36,1.36,0,0,1,1.84,0,1.28,1.28,0,0,1,.38.92,1.3,1.3,0,0,1-1.3,1.3Z"/><path class="cls-2" d="M49.5,18.3a1.34,1.34,0,0,1-.92-.38,1.3,1.3,0,0,1,0-1.84,1.36,1.36,0,0,1,1.84,0,1.3,1.3,0,0,1-.92,2.22Z"/><path class="cls-2" d="M51,22.55a1.34,1.34,0,0,1-.92-.38,1.32,1.32,0,0,1-.38-.92,1.34,1.34,0,0,1,.38-.92,1.36,1.36,0,0,1,1.84,0A1.3,1.3,0,0,1,51,22.55Z"/><path class="cls-2" d="M52.75,25.8a1.34,1.34,0,0,1-.92-.38,1.3,1.3,0,0,1,0-1.84,1.36,1.36,0,0,1,1.84,0,1.3,1.3,0,0,1-.92,2.22Z"/><path class="cls-2" d="M55.25,23.05a1.3,1.3,0,0,1-.92-2.22,1.36,1.36,0,0,1,1.84,0,1.3,1.3,0,0,1,0,1.84A1.3,1.3,0,0,1,55.25,23.05Z"/><path class="cls-2" d="M53.75,19.55a1.34,1.34,0,0,1-.92-.38,1.3,1.3,0,0,1,0-1.84,1.36,1.36,0,0,1,1.84,0,1.3,1.3,0,0,1-.92,2.22Z"/><path class="cls-2" d="M56,16.55a1.34,1.34,0,0,1-.92-.38,1.3,1.3,0,0,1,0-1.84,1.36,1.36,0,0,1,1.84,0A1.3,1.3,0,0,1,56,16.55Z"/><path class="cls-2" d="M56.25,12.3a1.3,1.3,0,0,1-.92-2.22,1.36,1.36,0,0,1,1.84,0,1.3,1.3,0,0,1-.92,2.22Z"/><path class="cls-2" d="M56.5,7.3a1.3,1.3,0,0,1-.92-2.22,1.36,1.36,0,0,1,1.84,0A1.3,1.3,0,0,1,56.5,7.3Z"/><path class="cls-2" d="M59.75,8.3a1.3,1.3,0,0,1-.92-2.22,1.36,1.36,0,0,1,1.84,0,1.3,1.3,0,0,1-.92,2.22Z"/><path class="cls-2" d="M58,3.8a1.3,1.3,0,0,1-1.3-1.3,1.32,1.32,0,0,1,.38-.92,1.36,1.36,0,0,1,1.84,0,1.3,1.3,0,0,1,0,1.84A1.3,1.3,0,0,1,58,3.8Z"/><path class="cls-2" d="M61.75,4.8a1.34,1.34,0,0,1-.92-.38,1.3,1.3,0,0,1,0-1.84,1.36,1.36,0,0,1,1.84,0,1.3,1.3,0,0,1-.92,2.22Z"/><path class="cls-2" d="M65,3.05a1.34,1.34,0,0,1-.92-.38,1.3,1.3,0,0,1,0-1.84,1.36,1.36,0,0,1,1.84,0,1.3,1.3,0,0,1,0,1.84A1.32,1.32,0,0,1,65,3.05Z"/><path class="cls-2" d="M67,5.05a1.3,1.3,0,0,1-.92-2.22,1.35,1.35,0,0,1,1.84,0A1.3,1.3,0,0,1,67,5.05Z"/><path class="cls-2" d="M63.5,8.05a1.34,1.34,0,0,1-.92-.38,1.3,1.3,0,0,1,0-1.84,1.36,1.36,0,0,1,1.84,0,1.3,1.3,0,0,1-.92,2.22Z"/><path class="cls-2" d="M62.75,11.8a1.34,1.34,0,0,1-.92-.38,1.32,1.32,0,0,1-.38-.92,1.34,1.34,0,0,1,.38-.92,1.36,1.36,0,0,1,1.84,0,1.3,1.3,0,0,1-.92,2.22Z"/><path class="cls-2" d="M60,14.05a1.34,1.34,0,0,1-.92-.38,1.3,1.3,0,0,1,0-1.84,1.36,1.36,0,0,1,1.84,0A1.3,1.3,0,0,1,60,14.05Z"/><path class="cls-2" d="M62.5,16.8a1.34,1.34,0,0,1-.92-.38,1.3,1.3,0,0,1,0-1.84,1.36,1.36,0,0,1,1.84,0,1.3,1.3,0,0,1-.92,2.22Z"/><path class="cls-2" d="M66.25,17.8a1.34,1.34,0,0,1-.92-.38,1.3,1.3,0,0,1,0-1.84,1.36,1.36,0,0,1,1.84,0,1.3,1.3,0,0,1-.92,2.22Z"/><path class="cls-2" d="M64.25,20.05a1.34,1.34,0,0,1-.92-.38,1.3,1.3,0,0,1,0-1.84,1.36,1.36,0,0,1,1.84,0,1.3,1.3,0,0,1-.92,2.22Z"/><path class="cls-2" d="M60.75,20.55a1.34,1.34,0,0,1-.92-.38,1.3,1.3,0,0,1,0-1.84,1.36,1.36,0,0,1,1.84,0,1.3,1.3,0,0,1-.92,2.22Z"/><path class="cls-2" d="M58,20.05a1.34,1.34,0,0,1-.92-.38,1.3,1.3,0,0,1,0-1.84,1.36,1.36,0,0,1,1.84,0A1.3,1.3,0,0,1,58,20.05Z"/><path class="cls-2" d="M59.75,24.3a1.32,1.32,0,0,1-.92-.38,1.3,1.3,0,0,1,0-1.84,1.36,1.36,0,0,1,1.84,0,1.3,1.3,0,0,1,0,1.84A1.3,1.3,0,0,1,59.75,24.3Z"/><path class="cls-2" d="M64.25,23.05a1.34,1.34,0,0,1-.92-.38,1.3,1.3,0,0,1,0-1.84,1.36,1.36,0,0,1,1.84,0,1.3,1.3,0,0,1-.92,2.22Z"/><path class="cls-2" d="M68.5,24.05a1.32,1.32,0,0,1-.92-.38,1.3,1.3,0,0,1,1.84-1.84,1.3,1.3,0,0,1-.92,2.22Z"/><path class="cls-2" d="M68.5,20.55a1.3,1.3,0,0,1-.92-2.22,1.35,1.35,0,0,1,1.84,0,1.3,1.3,0,0,1-.92,2.22Z"/><path class="cls-2" d="M65.5,13.8a1.34,1.34,0,0,1-.92-.38,1.3,1.3,0,0,1,0-1.84,1.36,1.36,0,0,1,1.84,0,1.3,1.3,0,0,1-.92,2.22Z"/><path class="cls-2" d="M66.25,10.05a1.34,1.34,0,0,1-.92-.38,1.3,1.3,0,0,1,0-1.84,1.35,1.35,0,0,1,1.84,0,1.3,1.3,0,0,1-.92,2.22Z"/><path class="cls-2" d="M69.75,8.05a1.34,1.34,0,0,1-.92-.38,1.32,1.32,0,0,1-.38-.92,1.3,1.3,0,0,1,2.22-.92,1.3,1.3,0,0,1-.92,2.22Z"/><path class="cls-2" d="M70.75,3.3a1.34,1.34,0,0,1-.92-.38A1.34,1.34,0,0,1,69.45,2a1.32,1.32,0,0,1,.38-.92,1.36,1.36,0,0,1,1.84,0,1.3,1.3,0,0,1,0,1.84A1.32,1.32,0,0,1,70.75,3.3Z"/><path class="cls-2" d="M69.75,14.55a1.3,1.3,0,0,1-.92-2.22,1.36,1.36,0,0,1,1.84,0,1.3,1.3,0,0,1-.92,2.22Z"/><path class="cls-2" d="M71.5,18.05a1.34,1.34,0,0,1-.92-.38,1.3,1.3,0,0,1,0-1.84,1.36,1.36,0,0,1,1.84,0,1.3,1.3,0,0,1-.92,2.22Z"/><path class="cls-2" d="M56.5,7.3a1.3,1.3,0,0,1-.92-2.22,1.36,1.36,0,0,1,1.84,0A1.3,1.3,0,0,1,56.5,7.3Z"/><path class="cls-2" d="M58,3.8a1.3,1.3,0,0,1-1.3-1.3,1.32,1.32,0,0,1,.38-.92,1.36,1.36,0,0,1,1.84,0,1.3,1.3,0,0,1,0,1.84A1.3,1.3,0,0,1,58,3.8Z"/><path class="cls-2" d="M54,4.55a1.3,1.3,0,0,1-.92-2.22,1.36,1.36,0,0,1,1.84,0A1.3,1.3,0,0,1,54,4.55Z"/><path class="cls-2" d="M24,24.05a1.34,1.34,0,0,1-.92-.38,1.3,1.3,0,0,1,0-1.84,1.36,1.36,0,0,1,1.84,0A1.3,1.3,0,0,1,24,24.05Z"/><path class="cls-2" d="M20,21.3a1.34,1.34,0,0,1-.92-.38A1.32,1.32,0,0,1,18.7,20a1.34,1.34,0,0,1,.38-.92,1.36,1.36,0,0,1,1.84,0,1.34,1.34,0,0,1,.38.92,1.32,1.32,0,0,1-.38.92A1.3,1.3,0,0,1,20,21.3Z"/><path class="cls-2" d="M16,22.3A1.3,1.3,0,0,1,14.7,21a1.34,1.34,0,0,1,.38-.92,1.36,1.36,0,0,1,1.84,0,1.34,1.34,0,0,1,.38.92A1.3,1.3,0,0,1,16,22.3Z"/><path class="cls-2" d="M17,18.3a1.34,1.34,0,0,1-.92-.38,1.3,1.3,0,0,1,0-1.84,1.36,1.36,0,0,1,1.84,0A1.3,1.3,0,0,1,17,18.3Z"/><path class="cls-2" d="M14.75,15.3a1.34,1.34,0,0,1-.92-.38,1.32,1.32,0,0,1-.38-.92,1.3,1.3,0,1,1,2.22.92A1.32,1.32,0,0,1,14.75,15.3Z"/><path class="cls-2" d="M12.5,12.55a1.34,1.34,0,0,1-.92-.38,1.32,1.32,0,0,1-.38-.92,1.34,1.34,0,0,1,.38-.92,1.36,1.36,0,0,1,1.84,0,1.3,1.3,0,0,1-.92,2.22Z"/><path class="cls-2" d="M12.5,18.8a1.3,1.3,0,0,1-.92-2.22,1.36,1.36,0,0,1,1.84,0,1.3,1.3,0,0,1,0,1.84A1.3,1.3,0,0,1,12.5,18.8Z"/><path class="cls-2" d="M16,22.3A1.3,1.3,0,0,1,14.7,21a1.34,1.34,0,0,1,.38-.92,1.36,1.36,0,0,1,1.84,0,1.34,1.34,0,0,1,.38.92A1.3,1.3,0,0,1,16,22.3Z"/><path class="cls-2" d="M18.5,24.55a1.34,1.34,0,0,1-.92-.38,1.3,1.3,0,0,1,0-1.84,1.35,1.35,0,0,1,1.84,0,1.32,1.32,0,0,1,.38.92,1.34,1.34,0,0,1-.38.92A1.32,1.32,0,0,1,18.5,24.55Z"/><path class="cls-2" d="M14,26.05a1.3,1.3,0,0,1-.92-2.22,1.35,1.35,0,0,1,1.84,0A1.3,1.3,0,0,1,14,26.05Z"/><path class="cls-2" d="M11.5,23.05a1.34,1.34,0,0,1-.92-.38,1.32,1.32,0,0,1-.38-.92,1.34,1.34,0,0,1,.38-.92,1.36,1.36,0,0,1,1.84,0,1.34,1.34,0,0,1,.38.92,1.3,1.3,0,0,1-1.3,1.3Z"/><path class="cls-2" d="M24,16.55a1.3,1.3,0,0,1-.92-2.22,1.36,1.36,0,0,1,1.84,0,1.3,1.3,0,0,1,0,1.84A1.3,1.3,0,0,1,24,16.55Z"/><path class="cls-2" d="M2,7.05A1.3,1.3,0,0,1,.7,5.75a1.34,1.34,0,0,1,.38-.92,1.35,1.35,0,0,1,1.84,0,1.34,1.34,0,0,1,.38.92A1.3,1.3,0,0,1,2,7.05Z"/><path class="cls-2" d="M3.25,16.55a1.3,1.3,0,0,1-.92-2.22,1.35,1.35,0,0,1,1.84,0,1.3,1.3,0,0,1-.92,2.22Z"/><path class="cls-2" d="M5.25,19.8a1.3,1.3,0,0,1-.92-2.22,1.35,1.35,0,0,1,1.84,0,1.29,1.29,0,0,1,.38.92,1.28,1.28,0,0,1-.38.92A1.32,1.32,0,0,1,5.25,19.8Z"/><path class="cls-2" d="M3.75,13.05a1.34,1.34,0,0,1-.92-.38,1.3,1.3,0,0,1,0-1.84,1.36,1.36,0,0,1,1.84,0,1.3,1.3,0,0,1-.92,2.22Z"/><path class="cls-2" d="M9,5.8a1.34,1.34,0,0,1-.92-.38,1.3,1.3,0,0,1,0-1.84,1.36,1.36,0,0,1,1.84,0A1.3,1.3,0,0,1,9,5.8Z"/><path class="cls-2" d="M5.75,6.3a1.34,1.34,0,0,1-.92-.38,1.3,1.3,0,0,1,0-1.84,1.36,1.36,0,0,1,1.84,0A1.32,1.32,0,0,1,7.05,5a1.34,1.34,0,0,1-.38.92A1.32,1.32,0,0,1,5.75,6.3Z"/><path class="cls-2" d="M6,9.55a1.34,1.34,0,0,1-.92-.38,1.3,1.3,0,0,1,0-1.84,1.3,1.3,0,0,1,2.22.92A1.3,1.3,0,0,1,6,9.55Z"/><path class="cls-2" d="M10.75,8.8a1.34,1.34,0,0,1-.92-.38,1.32,1.32,0,0,1-.38-.92,1.34,1.34,0,0,1,.38-.92,1.36,1.36,0,0,1,1.84,0,1.34,1.34,0,0,1,.38.92,1.3,1.3,0,0,1-1.3,1.3Z"/><path class="cls-2" d="M3.75,3.55a1.3,1.3,0,0,1-1.3-1.3,1.32,1.32,0,0,1,.38-.92,1.36,1.36,0,0,1,1.84,0,1.3,1.3,0,0,1,0,1.84A1.32,1.32,0,0,1,3.75,3.55Z"/><path class="cls-2" d="M7,14.3a1.34,1.34,0,0,1-.92-.38,1.3,1.3,0,0,1,0-1.84,1.36,1.36,0,0,1,1.84,0,1.3,1.3,0,0,1,0,1.84A1.32,1.32,0,0,1,7,14.3Z"/><path class="cls-2" d="M9.75,12.05a1.3,1.3,0,0,1-1.3-1.3,1.32,1.32,0,0,1,.38-.92,1.36,1.36,0,0,1,1.84,0,1.3,1.3,0,0,1-.92,2.22Z"/><path class="cls-2" d="M9.75,16.05a1.3,1.3,0,0,1-1.3-1.3,1.32,1.32,0,0,1,.38-.92,1.36,1.36,0,0,1,1.84,0,1.32,1.32,0,0,1,.38.92,1.34,1.34,0,0,1-.38.92A1.32,1.32,0,0,1,9.75,16.05Z"/><path class="cls-2" d="M12.5,18.8a1.3,1.3,0,0,1-.92-2.22,1.36,1.36,0,0,1,1.84,0,1.3,1.3,0,0,1,0,1.84A1.3,1.3,0,0,1,12.5,18.8Z"/><path class="cls-2" d="M8.25,20.55a1.34,1.34,0,0,1-.92-.38A1.32,1.32,0,0,1,7,19.25a1.34,1.34,0,0,1,.38-.92,1.36,1.36,0,0,1,1.84,0,1.34,1.34,0,0,1,.38.92,1.3,1.3,0,0,1-1.3,1.3Z"/><path class="cls-2" d="M5.75,26.05a1.34,1.34,0,0,1-.92-.38,1.3,1.3,0,0,1,0-1.84,1.36,1.36,0,0,1,1.84,0,1.32,1.32,0,0,1,.38.92,1.34,1.34,0,0,1-.38.92A1.32,1.32,0,0,1,5.75,26.05Z"/><path class="cls-2" d="M5,23.05a1.3,1.3,0,0,1-.92-2.22,1.36,1.36,0,0,1,1.84,0,1.3,1.3,0,0,1,0,1.84A1.32,1.32,0,0,1,5,23.05Z"/><path class="cls-2" d="M15,71.8a1.34,1.34,0,0,1-.92-.38,1.3,1.3,0,0,1,0-1.84,1.36,1.36,0,0,1,1.84,0,1.34,1.34,0,0,1,.38.92A1.3,1.3,0,0,1,15,71.8Z"/><path class="cls-2" d="M15,71.8a1.34,1.34,0,0,1-.92-.38,1.3,1.3,0,0,1,0-1.84,1.36,1.36,0,0,1,1.84,0,1.34,1.34,0,0,1,.38.92A1.3,1.3,0,0,1,15,71.8Z"/><path class="cls-2" d="M18.5,70.8a1.34,1.34,0,0,1-.92-.38,1.3,1.3,0,0,1,0-1.84,1.36,1.36,0,0,1,1.84,0,1.3,1.3,0,0,1-.92,2.22Z"/><path class="cls-2" d="M24,71.8a1.34,1.34,0,0,1-.92-.38,1.3,1.3,0,0,1,0-1.84,1.36,1.36,0,0,1,1.84,0,1.3,1.3,0,0,1,0,1.84A1.3,1.3,0,0,1,24,71.8Z"/><path class="cls-2" d="M29.25,71.3a1.3,1.3,0,0,1-.92-2.22,1.36,1.36,0,0,1,1.84,0,1.3,1.3,0,0,1,0,1.84A1.3,1.3,0,0,1,29.25,71.3Z"/><path class="cls-2" d="M32.75,71.8a1.34,1.34,0,0,1-.92-.38,1.3,1.3,0,0,1,0-1.84,1.36,1.36,0,0,1,1.84,0,1.32,1.32,0,0,1,.38.92,1.34,1.34,0,0,1-.38.92A1.32,1.32,0,0,1,32.75,71.8Z"/><path class="cls-2" d="M37.75,71.3a1.34,1.34,0,0,1-.92-.38,1.3,1.3,0,0,1,0-1.84,1.36,1.36,0,0,1,1.84,0,1.3,1.3,0,0,1-.92,2.22Z"/><path class="cls-2" d="M45,68.55a1.3,1.3,0,0,1-.92-2.22,1.36,1.36,0,0,1,1.84,0A1.3,1.3,0,0,1,45,68.55Z"/><path class="cls-2" d="M49.75,70.3a1.34,1.34,0,0,1-.92-.38,1.3,1.3,0,0,1,0-1.84,1.36,1.36,0,0,1,1.84,0,1.3,1.3,0,0,1-.92,2.22Z"/><path class="cls-2" d="M59.75,71.8a1.3,1.3,0,1,1,.92-2.22,1.3,1.3,0,0,1-.92,2.22Z"/><path class="cls-2" d="M67.75,72.55a1.3,1.3,0,0,1-.92-2.22,1.36,1.36,0,0,1,1.84,0,1.3,1.3,0,0,1,0,1.84A1.3,1.3,0,0,1,67.75,72.55Z"/><path class="cls-2" d="M55,73.55a1.3,1.3,0,0,1-.92-2.22,1.36,1.36,0,0,1,1.84,0A1.3,1.3,0,0,1,55,73.55Z"/><path class="cls-2" d="M53.75,69.8a1.3,1.3,0,0,1-.92-2.22,1.36,1.36,0,0,1,1.84,0,1.3,1.3,0,0,1-.92,2.22Z"/><path class="cls-2" d="M10.25,70.8a1.34,1.34,0,0,1-.92-.38,1.3,1.3,0,0,1,0-1.84,1.36,1.36,0,0,1,1.84,0,1.3,1.3,0,0,1-.92,2.22Z"/><path class="cls-2" d="M5.75,71.05a1.3,1.3,0,0,1-.92-2.22,1.3,1.3,0,0,1,2.22.92,1.3,1.3,0,0,1-1.3,1.3Z"/><path class="cls-2" d="M22,26.8a1.34,1.34,0,0,1-.92-.38,1.3,1.3,0,0,1,0-1.84,1.36,1.36,0,0,1,1.84,0,1.3,1.3,0,0,1,0,1.84A1.3,1.3,0,0,1,22,26.8Z"/><path class="cls-2" d="M26.5,27.8a1.34,1.34,0,0,1-.92-.38,1.3,1.3,0,0,1,0-1.84,1.36,1.36,0,0,1,1.84,0,1.34,1.34,0,0,1,.38.92,1.3,1.3,0,0,1-1.3,1.3Z"/><path class="cls-2" d="M30.25,25.8a1.34,1.34,0,0,1-.92-.38,1.3,1.3,0,0,1,0-1.84,1.36,1.36,0,0,1,1.84,0,1.3,1.3,0,0,1-.92,2.22Z"/><path class="cls-2" d="M29,29.8a1.3,1.3,0,0,1-.92-2.22,1.36,1.36,0,0,1,1.84,0,1.3,1.3,0,0,1,0,1.84A1.3,1.3,0,0,1,29,29.8Z"/><path class="cls-2" d="M26.25,31.8a1.34,1.34,0,0,1-.92-.38,1.3,1.3,0,0,1,0-1.84,1.35,1.35,0,0,1,1.84,0,1.3,1.3,0,0,1-.92,2.22Z"/><path class="cls-2" d="M22.75,31.05a1.3,1.3,0,0,1-.92-2.22,1.35,1.35,0,0,1,1.84,0,1.3,1.3,0,0,1,0,1.84A1.3,1.3,0,0,1,22.75,31.05Z"/><path class="cls-2" d="M19.5,31.8a1.34,1.34,0,0,1-.92-.38,1.3,1.3,0,0,1,0-1.84,1.35,1.35,0,0,1,1.84,0,1.3,1.3,0,0,1-.92,2.22Z"/><path class="cls-2" d="M18,28.05a1.3,1.3,0,0,1-.92-2.22,1.36,1.36,0,0,1,1.84,0A1.3,1.3,0,0,1,18,28.05Z"/><path class="cls-2" d="M16,30.55a1.3,1.3,0,0,1-.92-2.22,1.36,1.36,0,0,1,1.84,0,1.3,1.3,0,0,1,0,1.84A1.3,1.3,0,0,1,16,30.55Z"/><path class="cls-2" d="M12.75,29.3a1.34,1.34,0,0,1-.92-.38,1.3,1.3,0,0,1,0-1.84,1.3,1.3,0,0,1,2.22.92,1.3,1.3,0,0,1-1.3,1.3Z"/><path class="cls-2" d="M9.5,30.8a1.34,1.34,0,0,1-.92-.38,1.32,1.32,0,0,1-.38-.92,1.34,1.34,0,0,1,.38-.92,1.36,1.36,0,0,1,1.84,0,1.29,1.29,0,0,1,.38.92,1.28,1.28,0,0,1-.38.92A1.32,1.32,0,0,1,9.5,30.8Z"/><path class="cls-2" d="M8.5,34.05a1.34,1.34,0,0,1-.92-.38,1.3,1.3,0,0,1,0-1.84,1.36,1.36,0,0,1,1.84,0,1.3,1.3,0,0,1-.92,2.22Z"/><path class="cls-2" d="M10,38.3a1.34,1.34,0,0,1-.92-.38,1.3,1.3,0,0,1,0-1.84,1.36,1.36,0,0,1,1.84,0A1.3,1.3,0,0,1,10,38.3Z"/><path class="cls-2" d="M12.5,35.8a1.34,1.34,0,0,1-.92-.38,1.3,1.3,0,0,1,0-1.84,1.36,1.36,0,0,1,1.84,0,1.3,1.3,0,0,1-.92,2.22Z"/><path class="cls-2" d="M15.25,33.3a1.3,1.3,0,0,1-.92-2.22,1.36,1.36,0,0,1,1.84,0,1.3,1.3,0,0,1-.92,2.22Z"/><path class="cls-2" d="M19,35.55a1.34,1.34,0,0,1-.92-.38,1.3,1.3,0,0,1,0-1.84,1.36,1.36,0,0,1,1.84,0A1.3,1.3,0,0,1,19,35.55Z"/><path class="cls-2" d="M16,38.05a1.34,1.34,0,0,1-.92-.38,1.3,1.3,0,0,1,0-1.84,1.36,1.36,0,0,1,1.84,0A1.3,1.3,0,0,1,16,38.05Z"/><path class="cls-2" d="M13,40.8a1.34,1.34,0,0,1-.92-.38,1.3,1.3,0,0,1,0-1.84,1.36,1.36,0,0,1,1.84,0A1.3,1.3,0,0,1,13,40.8Z"/><path class="cls-2" d="M9.75,42.55a1.3,1.3,0,0,1-1.3-1.3,1.32,1.32,0,0,1,.38-.92,1.36,1.36,0,0,1,1.84,0,1.32,1.32,0,0,1,.38.92,1.34,1.34,0,0,1-.38.92A1.32,1.32,0,0,1,9.75,42.55Z"/><path class="cls-2" d="M10,38.3a1.34,1.34,0,0,1-.92-.38,1.3,1.3,0,0,1,0-1.84,1.36,1.36,0,0,1,1.84,0A1.3,1.3,0,0,1,10,38.3Z"/><path class="cls-2" d="M6.75,39.8a1.34,1.34,0,0,1-.92-.38,1.3,1.3,0,0,1,0-1.84,1.36,1.36,0,0,1,1.84,0,1.3,1.3,0,0,1-.92,2.22Z"/><path class="cls-2" d="M5.75,35.3a1.3,1.3,0,0,1-.92-2.22,1.36,1.36,0,0,1,1.84,0,1.34,1.34,0,0,1,.38.92,1.3,1.3,0,0,1-1.3,1.3Z"/><path class="cls-2" d="M5.5,30.05a1.34,1.34,0,0,1-.92-.38,1.3,1.3,0,0,1,0-1.84,1.36,1.36,0,0,1,1.84,0,1.3,1.3,0,0,1-.92,2.22Z"/><path class="cls-2" d="M2.5,32.05a1.34,1.34,0,0,1-.92-.38,1.3,1.3,0,0,1,0-1.84,1.36,1.36,0,0,1,1.84,0,1.3,1.3,0,0,1,0,1.84A1.32,1.32,0,0,1,2.5,32.05Z"/><path class="cls-2" d="M1.75,36.05a1.34,1.34,0,0,1-.92-.38,1.3,1.3,0,0,1,0-1.84,1.36,1.36,0,0,1,1.84,0,1.3,1.3,0,0,1-.92,2.22Z"/><path class="cls-2" d="M1.75,27.55a1.34,1.34,0,0,1-.92-.38,1.3,1.3,0,0,1,0-1.84,1.36,1.36,0,0,1,1.84,0,1.3,1.3,0,0,1-.92,2.22Z"/><path class="cls-2" d="M3,39.55a1.3,1.3,0,0,1-.92-2.22,1.35,1.35,0,0,1,1.84,0A1.3,1.3,0,0,1,3,39.55Z"/><path class="cls-2" d="M3.5,43.3a1.34,1.34,0,0,1-.92-.38,1.3,1.3,0,0,1,0-1.84,1.36,1.36,0,0,1,1.84,0A1.3,1.3,0,0,1,3.5,43.3Z"/><path class="cls-2" d="M2.75,49.3a1.34,1.34,0,0,1-.92-.38A1.32,1.32,0,0,1,1.45,48a1.34,1.34,0,0,1,.38-.92,1.36,1.36,0,0,1,1.84,0,1.3,1.3,0,0,1-.92,2.22Z"/><path class="cls-2" d="M3.75,52.3a1.34,1.34,0,0,1-.92-.38A1.32,1.32,0,0,1,2.45,51a1.34,1.34,0,0,1,.38-.92,1.36,1.36,0,0,1,1.84,0,1.34,1.34,0,0,1,.38.92,1.3,1.3,0,0,1-1.3,1.3Z"/><path class="cls-2" d="M7.25,50.3a1.34,1.34,0,0,1-.92-.38,1.3,1.3,0,0,1,0-1.84,1.36,1.36,0,0,1,1.84,0,1.3,1.3,0,0,1-.92,2.22Z"/><path class="cls-2" d="M5.5,46.3a1.3,1.3,0,0,1-.92-2.22,1.36,1.36,0,0,1,1.84,0A1.34,1.34,0,0,1,6.8,45a1.3,1.3,0,0,1-1.3,1.3Z"/><path class="cls-2" d="M9.5,46.8a1.34,1.34,0,0,1-.92-.38,1.3,1.3,0,0,1,0-1.84,1.36,1.36,0,0,1,1.84,0,1.29,1.29,0,0,1,.38.92,1.3,1.3,0,0,1-1.3,1.3Z"/><path class="cls-2" d="M12,49.8a1.34,1.34,0,0,1-.92-.38,1.32,1.32,0,0,1-.38-.92,1.34,1.34,0,0,1,.38-.92,1.36,1.36,0,0,1,1.84,0,1.34,1.34,0,0,1,.38.92A1.3,1.3,0,0,1,12,49.8Z"/><path class="cls-2" d="M15,50.8a1.3,1.3,0,0,1-.92-2.22,1.36,1.36,0,0,1,1.84,0A1.3,1.3,0,0,1,15,50.8Z"/><path class="cls-2" d="M17.75,52.3a1.34,1.34,0,0,1-.92-.38,1.3,1.3,0,0,1,0-1.84,1.36,1.36,0,0,1,1.84,0,1.3,1.3,0,0,1-.92,2.22Z"/><path class="cls-2" d="M12.5,45.55a1.34,1.34,0,0,1-.92-.38,1.3,1.3,0,0,1,0-1.84,1.36,1.36,0,0,1,1.84,0,1.3,1.3,0,0,1-.92,2.22Z"/><path class="cls-2" d="M16,46.8a1.34,1.34,0,0,1-.92-.38,1.3,1.3,0,0,1,0-1.84,1.36,1.36,0,0,1,1.84,0A1.3,1.3,0,0,1,16,46.8Z"/><path class="cls-2" d="M19.25,47.8A1.3,1.3,0,0,1,18,46.5a1.34,1.34,0,0,1,.38-.92,1.36,1.36,0,0,1,1.84,0,1.34,1.34,0,0,1,.38.92,1.32,1.32,0,0,1-.38.92A1.3,1.3,0,0,1,19.25,47.8Z"/><path class="cls-2" d="M16.25,42.3a1.3,1.3,0,0,1-.92-2.22,1.36,1.36,0,0,1,1.84,0,1.3,1.3,0,0,1-.92,2.22Z"/><path class="cls-2" d="M20.25,43.3a1.34,1.34,0,0,1-.92-.38A1.32,1.32,0,0,1,19,42a1.34,1.34,0,0,1,.38-.92,1.36,1.36,0,0,1,1.84,0,1.34,1.34,0,0,1,.38.92,1.3,1.3,0,0,1-1.3,1.3Z"/><path class="cls-2" d="M21,39.05a1.34,1.34,0,0,1-.92-.38,1.3,1.3,0,0,1,0-1.84,1.36,1.36,0,0,1,1.84,0A1.3,1.3,0,0,1,21,39.05Z"/><path class="cls-2" d="M23.5,42.05a1.3,1.3,0,0,1-.92-2.22,1.35,1.35,0,0,1,1.84,0,1.3,1.3,0,0,1,0,1.84A1.3,1.3,0,0,1,23.5,42.05Z"/><path class="cls-2" d="M26.25,39.55a1.3,1.3,0,0,1-1.3-1.3,1.34,1.34,0,0,1,.38-.92,1.36,1.36,0,0,1,1.84,0,1.34,1.34,0,0,1,.38.92,1.3,1.3,0,0,1-1.3,1.3Z"/><path class="cls-2" d="M22.5,46.05a1.34,1.34,0,0,1-.92-.38,1.3,1.3,0,0,1,0-1.84,1.36,1.36,0,0,1,1.84,0,1.3,1.3,0,0,1-.92,2.22Z"/><path class="cls-2" d="M26,48.05a1.34,1.34,0,0,1-.92-.38,1.3,1.3,0,0,1,0-1.84,1.36,1.36,0,0,1,1.84,0A1.3,1.3,0,0,1,26,48.05Z"/><path class="cls-2" d="M26,52.05a1.3,1.3,0,0,1-.92-2.22,1.36,1.36,0,0,1,1.84,0A1.3,1.3,0,0,1,26,52.05Z"/><path class="cls-2" d="M22,50.3a1.3,1.3,0,0,1-.92-2.22,1.36,1.36,0,0,1,1.84,0,1.34,1.34,0,0,1,.38.92,1.32,1.32,0,0,1-.38.92A1.3,1.3,0,0,1,22,50.3Z"/><path class="cls-2" d="M29.5,49.05a1.34,1.34,0,0,1-.92-.38,1.3,1.3,0,0,1,0-1.84,1.36,1.36,0,0,1,1.84,0,1.3,1.3,0,0,1,0,1.84A1.3,1.3,0,0,1,29.5,49.05Z"/><path class="cls-2" d="M31.5,45.8a1.3,1.3,0,0,1-.92-2.22,1.36,1.36,0,0,1,1.84,0,1.29,1.29,0,0,1,.38.92,1.3,1.3,0,0,1-1.3,1.3Z"/><path class="cls-2" d="M30.25,41.8a1.3,1.3,0,0,1-.92-2.22,1.36,1.36,0,0,1,1.84,0,1.3,1.3,0,0,1-.92,2.22Z"/><path class="cls-2" d="M30.25,37.8a1.34,1.34,0,0,1-.92-.38,1.3,1.3,0,0,1,0-1.84,1.36,1.36,0,0,1,1.84,0,1.3,1.3,0,0,1-.92,2.22Z"/><path class="cls-2" d="M27,36.05a1.34,1.34,0,0,1-.92-.38,1.3,1.3,0,0,1,0-1.84,1.36,1.36,0,0,1,1.84,0A1.3,1.3,0,0,1,27,36.05Z"/><path class="cls-2" d="M23.5,36.05a1.3,1.3,0,0,1-.92-2.22,1.36,1.36,0,0,1,1.84,0,1.3,1.3,0,0,1,0,1.84A1.3,1.3,0,0,1,23.5,36.05Z"/><path class="cls-2" d="M30,32.55a1.34,1.34,0,0,1-.92-.38,1.3,1.3,0,0,1,0-1.84,1.36,1.36,0,0,1,1.84,0,1.34,1.34,0,0,1,.38.92,1.3,1.3,0,0,1-1.3,1.3Z"/><path class="cls-2" d="M33,35.3a1.34,1.34,0,0,1-.92-.38A1.32,1.32,0,0,1,31.7,34a1.34,1.34,0,0,1,.38-.92,1.36,1.36,0,0,1,1.84,0A1.3,1.3,0,0,1,33,35.3Z"/><path class="cls-2" d="M36,35.8a1.34,1.34,0,0,1-.92-.38,1.3,1.3,0,0,1,0-1.84,1.36,1.36,0,0,1,1.84,0A1.3,1.3,0,0,1,36,35.8Z"/><path class="cls-2" d="M33.5,39.8a1.34,1.34,0,0,1-.92-.38,1.32,1.32,0,0,1-.38-.92,1.34,1.34,0,0,1,.38-.92,1.36,1.36,0,0,1,1.84,0,1.3,1.3,0,0,1-.92,2.22Z"/><path class="cls-2" d="M34.5,43.55a1.3,1.3,0,0,1-.92-2.22,1.36,1.36,0,0,1,1.84,0,1.3,1.3,0,0,1,0,1.84A1.3,1.3,0,0,1,34.5,43.55Z"/><path class="cls-2" d="M31.5,45.8a1.3,1.3,0,0,1-.92-2.22,1.36,1.36,0,0,1,1.84,0,1.29,1.29,0,0,1,.38.92,1.3,1.3,0,0,1-1.3,1.3Z"/><path class="cls-2" d="M34.75,47.3a1.34,1.34,0,0,1-.92-.38,1.3,1.3,0,0,1,0-1.84,1.35,1.35,0,0,1,1.84,0,1.29,1.29,0,0,1,.38.92,1.34,1.34,0,0,1-.38.92A1.32,1.32,0,0,1,34.75,47.3Z"/><path class="cls-2" d="M37.75,51.55a1.3,1.3,0,0,1-.92-2.22,1.35,1.35,0,0,1,1.84,0,1.3,1.3,0,0,1-.92,2.22Z"/><path class="cls-2" d="M32.75,50.55a1.34,1.34,0,0,1-.92-.38,1.3,1.3,0,0,1,0-1.84,1.36,1.36,0,0,1,1.84,0,1.32,1.32,0,0,1,.38.92,1.34,1.34,0,0,1-.38.92A1.32,1.32,0,0,1,32.75,50.55Z"/><path class="cls-2" d="M38.5,47.55a1.34,1.34,0,0,1-.92-.38,1.3,1.3,0,0,1,0-1.84,1.36,1.36,0,0,1,1.84,0,1.3,1.3,0,0,1,0,1.84A1.3,1.3,0,0,1,38.5,47.55Z"/><path class="cls-2" d="M38.25,43.05a1.3,1.3,0,0,1-.92-2.22,1.36,1.36,0,0,1,1.84,0,1.3,1.3,0,0,1,0,1.84A1.3,1.3,0,0,1,38.25,43.05Z"/><path class="cls-2" d="M37.5,39.55a1.34,1.34,0,0,1-.92-.38,1.3,1.3,0,0,1,0-1.84,1.36,1.36,0,0,1,1.84,0,1.3,1.3,0,0,1,0,1.84A1.32,1.32,0,0,1,37.5,39.55Z"/><path class="cls-2" d="M33,35.3a1.34,1.34,0,0,1-.92-.38A1.32,1.32,0,0,1,31.7,34a1.34,1.34,0,0,1,.38-.92,1.36,1.36,0,0,1,1.84,0A1.3,1.3,0,0,1,33,35.3Z"/><path class="cls-2" d="M36,35.8a1.34,1.34,0,0,1-.92-.38,1.3,1.3,0,0,1,0-1.84,1.36,1.36,0,0,1,1.84,0A1.3,1.3,0,0,1,36,35.8Z"/><path class="cls-2" d="M33.75,32.05a1.34,1.34,0,0,1-.92-.38,1.3,1.3,0,0,1,0-1.84,1.36,1.36,0,0,1,1.84,0,1.3,1.3,0,0,1-.92,2.22Z"/><path class="cls-2" d="M33.25,28.05a1.3,1.3,0,0,1-.92-2.22,1.36,1.36,0,0,1,1.84,0,1.3,1.3,0,0,1,0,1.84A1.3,1.3,0,0,1,33.25,28.05Z"/><path class="cls-2" d="M37,28.3a1.34,1.34,0,0,1-.92-.38,1.3,1.3,0,0,1,0-1.84,1.36,1.36,0,0,1,1.84,0A1.3,1.3,0,0,1,37,28.3Z"/><path class="cls-2" d="M37.75,32.8a1.34,1.34,0,0,1-.92-.38,1.3,1.3,0,0,1,0-1.84,1.35,1.35,0,0,1,1.84,0,1.3,1.3,0,0,1-.92,2.22Z"/><path class="cls-2" d="M40,36.05a1.3,1.3,0,0,1-.92-2.22,1.36,1.36,0,0,1,1.84,0A1.3,1.3,0,0,1,40,36.05Z"/><path class="cls-2" d="M43,38.55a1.3,1.3,0,0,1-.92-2.22,1.36,1.36,0,0,1,1.84,0A1.3,1.3,0,0,1,43,38.55Z"/><path class="cls-2" d="M42.5,42.3a1.3,1.3,0,0,1-.92-2.22,1.35,1.35,0,0,1,1.84,0,1.3,1.3,0,0,1-.92,2.22Z"/><path class="cls-2" d="M41.75,46.05a1.34,1.34,0,0,1-.92-.38,1.3,1.3,0,0,1,0-1.84,1.35,1.35,0,0,1,1.84,0,1.3,1.3,0,0,1-.92,2.22Z"/><path class="cls-2" d="M43.75,49.55a1.34,1.34,0,0,1-.92-.38,1.3,1.3,0,0,1,0-1.84,1.35,1.35,0,0,1,1.84,0,1.3,1.3,0,0,1-.92,2.22Z"/><path class="cls-2" d="M46.75,46.55a1.3,1.3,0,0,1-.92-2.22,1.36,1.36,0,0,1,1.84,0,1.3,1.3,0,0,1-.92,2.22Z"/><path class="cls-2" d="M46.75,51.05a1.34,1.34,0,0,1-.92-.38,1.3,1.3,0,0,1,0-1.84,1.36,1.36,0,0,1,1.84,0,1.3,1.3,0,0,1-.92,2.22Z"/><path class="cls-2" d="M46.5,41.8a1.3,1.3,0,0,1-.92-2.22,1.36,1.36,0,0,1,1.84,0,1.3,1.3,0,0,1-.92,2.22Z"/><path class="cls-2" d="M47.75,38.8a1.34,1.34,0,0,1-.92-.38,1.3,1.3,0,0,1,0-1.84,1.36,1.36,0,0,1,1.84,0,1.3,1.3,0,0,1,0,1.84A1.3,1.3,0,0,1,47.75,38.8Z"/><path class="cls-2" d="M44.5,34.8a1.3,1.3,0,0,1-.92-2.22,1.36,1.36,0,0,1,1.84,0,1.3,1.3,0,0,1-.92,2.22Z"/><path class="cls-2" d="M42.75,32.3a1.34,1.34,0,0,1-.92-.38,1.32,1.32,0,0,1-.38-.92,1.3,1.3,0,1,1,2.6,0,1.3,1.3,0,0,1-1.3,1.3Z"/><path class="cls-2" d="M40.75,30.05a1.34,1.34,0,0,1-.92-.38,1.3,1.3,0,0,1,0-1.84,1.35,1.35,0,0,1,1.84,0,1.3,1.3,0,0,1,0,1.84A1.3,1.3,0,0,1,40.75,30.05Z"/><path class="cls-2" d="M44,28.05a1.3,1.3,0,0,1-.92-2.22,1.36,1.36,0,0,1,1.84,0A1.3,1.3,0,0,1,44,28.05Z"/><path class="cls-2" d="M43,24.05a1.34,1.34,0,0,1-.92-.38,1.3,1.3,0,0,1,0-1.84,1.36,1.36,0,0,1,1.84,0A1.3,1.3,0,0,1,43,24.05Z"/><path class="cls-2" d="M47.75,26.8a1.34,1.34,0,0,1-.92-.38,1.3,1.3,0,0,1,0-1.84,1.36,1.36,0,0,1,1.84,0,1.3,1.3,0,0,1-.92,2.22Z"/><path class="cls-2" d="M46.5,31.05a1.34,1.34,0,0,1-.92-.38,1.3,1.3,0,0,1,0-1.84,1.36,1.36,0,0,1,1.84,0,1.3,1.3,0,0,1-.92,2.22Z"/><path class="cls-2" d="M48.5,34.3a1.34,1.34,0,0,1-.92-.38,1.3,1.3,0,0,1,0-1.84,1.36,1.36,0,0,1,1.84,0,1.3,1.3,0,0,1-.92,2.22Z"/><path class="cls-2" d="M51.75,36.8a1.3,1.3,0,0,1-1.3-1.3,1.32,1.32,0,0,1,.38-.92,1.36,1.36,0,0,1,1.84,0,1.3,1.3,0,0,1-.92,2.22Z"/><path class="cls-2" d="M51.5,40.8a1.3,1.3,0,0,1-.92-2.22,1.36,1.36,0,0,1,1.84,0,1.3,1.3,0,0,1-.92,2.22Z"/><path class="cls-2" d="M50.5,44.8a1.34,1.34,0,0,1-.92-.38,1.32,1.32,0,0,1-.38-.92,1.3,1.3,0,1,1,2.6,0,1.3,1.3,0,0,1-1.3,1.3Z"/><path class="cls-2" d="M54.25,44.05a1.3,1.3,0,0,1-.92-2.22,1.36,1.36,0,0,1,1.84,0,1.3,1.3,0,0,1-.92,2.22Z"/><path class="cls-2" d="M54,48.55a1.3,1.3,0,0,1-.92-2.22,1.36,1.36,0,0,1,1.84,0A1.3,1.3,0,0,1,54,48.55Z"/><path class="cls-2" d="M56.75,51.55a1.34,1.34,0,0,1-.92-.38,1.3,1.3,0,0,1,0-1.84,1.35,1.35,0,0,1,1.84,0,1.3,1.3,0,0,1,0,1.84A1.3,1.3,0,0,1,56.75,51.55Z"/><path class="cls-2" d="M57.5,46.8a1.34,1.34,0,0,1-.92-.38,1.3,1.3,0,0,1,0-1.84,1.36,1.36,0,0,1,1.84,0,1.3,1.3,0,0,1-.92,2.22Z"/><path class="cls-2" d="M57.5,43.05a1.3,1.3,0,0,1-.92-2.22,1.36,1.36,0,0,1,1.84,0,1.3,1.3,0,0,1,0,1.84A1.3,1.3,0,0,1,57.5,43.05Z"/><path class="cls-2" d="M56.5,39.05a1.34,1.34,0,0,1-.92-.38,1.3,1.3,0,0,1,0-1.84,1.36,1.36,0,0,1,1.84,0,1.3,1.3,0,0,1-.92,2.22Z"/><path class="cls-2" d="M27.25,44.05a1.34,1.34,0,0,1-.92-.38,1.3,1.3,0,0,1,0-1.84,1.35,1.35,0,0,1,1.84,0,1.3,1.3,0,0,1-.92,2.22Z"/><path class="cls-2" d="M70.25,33.3a1.3,1.3,0,0,1-.92-2.22,1.35,1.35,0,0,1,1.84,0,1.3,1.3,0,0,1-.92,2.22Z"/><path class="cls-2" d="M71.25,29.05a1.34,1.34,0,0,1-.92-.38,1.3,1.3,0,0,1,0-1.84,1.36,1.36,0,0,1,1.84,0,1.3,1.3,0,0,1-.92,2.22Z"/><path class="cls-2" d="M68,27.3a1.34,1.34,0,0,1-.92-.38A1.32,1.32,0,0,1,66.7,26a1.3,1.3,0,0,1,2.22-.92A1.3,1.3,0,0,1,68,27.3Z"/><path class="cls-2" d="M68.25,36.55a1.3,1.3,0,0,1-.92-2.22,1.36,1.36,0,0,1,1.84,0,1.3,1.3,0,0,1,0,1.84A1.3,1.3,0,0,1,68.25,36.55Z"/><path class="cls-2" d="M68,40.3a1.34,1.34,0,0,1-.92-.38,1.3,1.3,0,0,1,0-1.84,1.35,1.35,0,0,1,1.84,0A1.3,1.3,0,0,1,68,40.3Z"/><path class="cls-2" d="M71.5,39.05a1.3,1.3,0,0,1-.92-2.22,1.36,1.36,0,0,1,1.84,0,1.3,1.3,0,0,1-.92,2.22Z"/><path class="cls-2" d="M70.75,43.05a1.34,1.34,0,0,1-.92-.38,1.32,1.32,0,0,1-.38-.92,1.34,1.34,0,0,1,.38-.92,1.36,1.36,0,0,1,1.84,0,1.3,1.3,0,0,1-.92,2.22Z"/><path class="cls-2" d="M70,50.55a1.34,1.34,0,0,1-.92-.38,1.3,1.3,0,0,1,0-1.84,1.35,1.35,0,0,1,1.84,0A1.3,1.3,0,0,1,70,50.55Z"/><path class="cls-2" d="M69,47.05a1.34,1.34,0,0,1-.92-.38,1.3,1.3,0,0,1,0-1.84,1.36,1.36,0,0,1,1.84,0A1.3,1.3,0,0,1,69,47.05Z"/><path class="cls-2" d="M66.5,31.05a1.3,1.3,0,0,1-.92-2.22,1.36,1.36,0,0,1,1.84,0,1.3,1.3,0,0,1-.92,2.22Z"/><path class="cls-2" d="M63,31.3a1.34,1.34,0,0,1-.92-.38,1.3,1.3,0,0,1,0-1.84,1.36,1.36,0,0,1,1.84,0,1.3,1.3,0,0,1,0,1.84A1.3,1.3,0,0,1,63,31.3Z"/><path class="cls-2" d="M64,26.55a1.34,1.34,0,0,1-.92-.38,1.3,1.3,0,0,1,0-1.84,1.36,1.36,0,0,1,1.84,0A1.3,1.3,0,0,1,64,26.55Z"/><path class="cls-2" d="M60.5,28.05a1.34,1.34,0,0,1-.92-.38,1.3,1.3,0,0,1,0-1.84,1.36,1.36,0,0,1,1.84,0,1.3,1.3,0,0,1,0,1.84A1.3,1.3,0,0,1,60.5,28.05Z"/><path class="cls-2" d="M56.75,27.05a1.34,1.34,0,0,1-.92-.38,1.3,1.3,0,0,1,0-1.84,1.36,1.36,0,0,1,1.84,0,1.32,1.32,0,0,1,.38.92,1.3,1.3,0,0,1-.38.92A1.32,1.32,0,0,1,56.75,27.05Z"/><path class="cls-2" d="M53.25,28.8a1.34,1.34,0,0,1-.92-.38,1.3,1.3,0,0,1,0-1.84,1.35,1.35,0,0,1,1.84,0,1.3,1.3,0,0,1,0,1.84A1.3,1.3,0,0,1,53.25,28.8Z"/><path class="cls-2" d="M50.25,29.8a1.34,1.34,0,0,1-.92-.38,1.3,1.3,0,0,1,0-1.84,1.36,1.36,0,0,1,1.84,0,1.3,1.3,0,0,1-.92,2.22Z"/><path class="cls-2" d="M52.5,33.55a1.34,1.34,0,0,1-.92-.38,1.3,1.3,0,0,1,0-1.84,1.36,1.36,0,0,1,1.84,0,1.3,1.3,0,0,1-.92,2.22Z"/><path class="cls-2" d="M56.75,31.05a1.34,1.34,0,0,1-.92-.38,1.3,1.3,0,0,1,0-1.84,1.36,1.36,0,0,1,1.84,0,1.32,1.32,0,0,1,.38.92,1.3,1.3,0,0,1-.38.92A1.32,1.32,0,0,1,56.75,31.05Z"/><path class="cls-2" d="M59.75,34.05a1.3,1.3,0,0,1-1.3-1.3,1.34,1.34,0,0,1,.38-.92,1.36,1.36,0,0,1,1.84,0,1.3,1.3,0,0,1-.92,2.22Z"/><path class="cls-2" d="M56,35.55a1.3,1.3,0,0,1-.92-2.22,1.35,1.35,0,0,1,1.84,0,1.3,1.3,0,0,1,0,1.84A1.3,1.3,0,0,1,56,35.55Z"/><path class="cls-2" d="M60,38.3a1.34,1.34,0,0,1-.92-.38,1.3,1.3,0,0,1,0-1.84,1.36,1.36,0,0,1,1.84,0A1.3,1.3,0,0,1,60,38.3Z"/><path class="cls-2" d="M64.5,34.8a1.31,1.31,0,0,1-1.3-1.3,1.32,1.32,0,0,1,.38-.92,1.35,1.35,0,0,1,1.84,0,1.3,1.3,0,0,1-.92,2.22Z"/><path class="cls-2" d="M64.25,38.05a1.34,1.34,0,0,1-.92-.38,1.3,1.3,0,0,1,0-1.84,1.36,1.36,0,0,1,1.84,0,1.3,1.3,0,0,1-.92,2.22Z"/><path class="cls-2" d="M61.5,42.3a1.34,1.34,0,0,1-.92-.38,1.3,1.3,0,0,1,0-1.84,1.36,1.36,0,0,1,1.84,0,1.3,1.3,0,0,1,0,1.84A1.3,1.3,0,0,1,61.5,42.3Z"/><path class="cls-2" d="M62.75,46.3a1.34,1.34,0,0,1-.92-.38,1.3,1.3,0,0,1,0-1.84,1.36,1.36,0,0,1,1.84,0,1.3,1.3,0,0,1,0,1.84A1.3,1.3,0,0,1,62.75,46.3Z"/><path class="cls-2" d="M57.5,46.8a1.34,1.34,0,0,1-.92-.38,1.3,1.3,0,0,1,0-1.84,1.36,1.36,0,0,1,1.84,0,1.3,1.3,0,0,1-.92,2.22Z"/><path class="cls-2" d="M60.25,49.05a1.32,1.32,0,0,1-.92-.38,1.34,1.34,0,0,1-.38-.92,1.32,1.32,0,0,1,.38-.92,1.36,1.36,0,0,1,1.84,0,1.32,1.32,0,0,1,.38.92,1.28,1.28,0,0,1-.38.92A1.32,1.32,0,0,1,60.25,49.05Z"/><path class="cls-2" d="M65.75,49.3a1.34,1.34,0,0,1-.92-.38,1.3,1.3,0,0,1,0-1.84,1.35,1.35,0,0,1,1.84,0,1.3,1.3,0,0,1,0,1.84A1.3,1.3,0,0,1,65.75,49.3Z"/><path class="cls-2" d="M65.5,43.55a1.34,1.34,0,0,1-.92-.38,1.3,1.3,0,0,1,0-1.84,1.36,1.36,0,0,1,1.84,0,1.3,1.3,0,0,1-.92,2.22Z"/><path class="cls-2" d="M50,49.05a1.34,1.34,0,0,1-.92-.38,1.32,1.32,0,0,1-.38-.92,1.34,1.34,0,0,1,.38-.92,1.36,1.36,0,0,1,1.84,0,1.3,1.3,0,0,1,0,1.84A1.32,1.32,0,0,1,50,49.05Z"/><path class="cls-2" d="M61.75,52.8a1.34,1.34,0,0,1-.92-.38,1.32,1.32,0,0,1-.38-.92,1.34,1.34,0,0,1,.38-.92,1.36,1.36,0,0,1,1.84,0,1.3,1.3,0,0,1-.92,2.22Z"/><path class="cls-2" d="M6.75,58.8a1.34,1.34,0,0,1-.92-.38,1.3,1.3,0,0,1,0-1.84,1.36,1.36,0,0,1,1.84,0,1.34,1.34,0,0,1,.38.92,1.3,1.3,0,0,1-1.3,1.3Z"/><path class="cls-2" d="M7.75,54.3a1.34,1.34,0,0,1-.92-.38,1.3,1.3,0,0,1,0-1.84,1.36,1.36,0,0,1,1.84,0,1.3,1.3,0,0,1-.92,2.22Z"/><path class="cls-2" d="M11,53.05a1.34,1.34,0,0,1-.92-.38,1.3,1.3,0,0,1,0-1.84,1.36,1.36,0,0,1,1.84,0A1.3,1.3,0,0,1,11,53.05Z"/><path class="cls-2" d="M10,57.05a1.34,1.34,0,0,1-.92-.38,1.3,1.3,0,0,1,0-1.84,1.36,1.36,0,0,1,1.84,0A1.3,1.3,0,0,1,10,57.05Z"/><path class="cls-2" d="M13.5,59.05a1.34,1.34,0,0,1-.92-.38,1.3,1.3,0,0,1,0-1.84,1.36,1.36,0,0,1,1.84,0,1.3,1.3,0,0,1-.92,2.22Z"/><path class="cls-2" d="M13.5,63.05a1.34,1.34,0,0,1-.92-.38,1.3,1.3,0,0,1,0-1.84,1.36,1.36,0,0,1,1.84,0,1.3,1.3,0,0,1-.92,2.22Z"/><path class="cls-2" d="M9.5,61.3a1.34,1.34,0,0,1-.92-.38,1.3,1.3,0,0,1,0-1.84,1.36,1.36,0,0,1,1.84,0,1.3,1.3,0,0,1,0,1.84A1.32,1.32,0,0,1,9.5,61.3Z"/><path class="cls-2" d="M17,60.05a1.3,1.3,0,0,1-.92-2.22,1.36,1.36,0,0,1,1.84,0,1.3,1.3,0,0,1,0,1.84A1.3,1.3,0,0,1,17,60.05Z"/><path class="cls-2" d="M17.25,63.05a1.3,1.3,0,0,1-1.3-1.3,1.34,1.34,0,0,1,.38-.92,1.36,1.36,0,0,1,1.84,0,1.34,1.34,0,0,1,.38.92,1.32,1.32,0,0,1-.38.92A1.3,1.3,0,0,1,17.25,63.05Z"/><path class="cls-2" d="M19,56.8a1.34,1.34,0,0,1-.92-.38,1.3,1.3,0,0,1,0-1.84,1.35,1.35,0,0,1,1.84,0A1.3,1.3,0,0,1,19,56.8Z"/><path class="cls-2" d="M22,54.55a1.34,1.34,0,0,1-.92-.38,1.3,1.3,0,0,1,0-1.84,1.36,1.36,0,0,1,1.84,0A1.3,1.3,0,0,1,22,54.55Z"/><path class="cls-2" d="M19,56.8a1.34,1.34,0,0,1-.92-.38,1.3,1.3,0,0,1,0-1.84,1.35,1.35,0,0,1,1.84,0A1.3,1.3,0,0,1,19,56.8Z"/><path class="cls-2" d="M22.25,58.3a1.34,1.34,0,0,1-.92-.38,1.3,1.3,0,0,1,0-1.84,1.36,1.36,0,0,1,1.84,0,1.3,1.3,0,0,1-.92,2.22Z"/><path class="cls-2" d="M25.25,62.55a1.34,1.34,0,0,1-.92-.38,1.3,1.3,0,0,1,0-1.84,1.36,1.36,0,0,1,1.84,0,1.29,1.29,0,0,1,.38.92,1.3,1.3,0,0,1-1.3,1.3Z"/><path class="cls-2" d="M20.25,61.55a1.34,1.34,0,0,1-.92-.38,1.3,1.3,0,0,1,0-1.84,1.36,1.36,0,0,1,1.84,0,1.3,1.3,0,0,1,0,1.84A1.3,1.3,0,0,1,20.25,61.55Z"/><path class="cls-2" d="M26,59.55a1.3,1.3,0,0,1-.92-2.22,1.36,1.36,0,0,1,1.84,0,1.3,1.3,0,0,1,0,1.84A1.3,1.3,0,0,1,26,59.55Z"/><path class="cls-2" d="M25.75,55.05a1.34,1.34,0,0,1-.92-.38,1.3,1.3,0,0,1,0-1.84,1.36,1.36,0,0,1,1.84,0,1.3,1.3,0,0,1-.92,2.22Z"/><path class="cls-2" d="M30,53.3a1.34,1.34,0,0,1-.92-.38,1.3,1.3,0,0,1,0-1.84,1.36,1.36,0,0,1,1.84,0,1.3,1.3,0,0,1,0,1.84A1.3,1.3,0,0,1,30,53.3Z"/><path class="cls-2" d="M29.25,56.3a1.3,1.3,0,0,1-.92-2.22,1.36,1.36,0,0,1,1.84,0,1.3,1.3,0,0,1,0,1.84A1.3,1.3,0,0,1,29.25,56.3Z"/><path class="cls-2" d="M30.5,60.05a1.3,1.3,0,0,1-1.3-1.3,1.3,1.3,0,1,1,2.6,0,1.3,1.3,0,0,1-1.3,1.3Z"/><path class="cls-2" d="M34.25,57.55a1.34,1.34,0,0,1-.92-.38,1.3,1.3,0,0,1,0-1.84,1.35,1.35,0,0,1,1.84,0,1.3,1.3,0,0,1-.92,2.22Z"/><path class="cls-2" d="M34,63.05a1.3,1.3,0,0,1-.92-2.22,1.36,1.36,0,0,1,1.84,0A1.3,1.3,0,0,1,34,63.05Z"/><path class="cls-2" d="M34.5,54.05a1.34,1.34,0,0,1-.92-.38,1.3,1.3,0,0,1,0-1.84,1.36,1.36,0,0,1,1.84,0,1.3,1.3,0,0,1-.92,2.22Z"/><path class="cls-2" d="M38,55.8a1.34,1.34,0,0,1-.92-.38,1.3,1.3,0,0,1,0-1.84,1.35,1.35,0,0,1,1.84,0A1.3,1.3,0,0,1,38,55.8Z"/><path class="cls-2" d="M14.75,55.05a1.3,1.3,0,0,1-1.3-1.3,1.34,1.34,0,0,1,.38-.92,1.36,1.36,0,0,1,1.84,0,1.34,1.34,0,0,1,.38.92,1.3,1.3,0,0,1-1.3,1.3Z"/><path class="cls-2" d="M37,59.8a1.34,1.34,0,0,1-.92-.38,1.3,1.3,0,0,1,0-1.84,1.35,1.35,0,0,1,1.84,0,1.28,1.28,0,0,1,.38.92A1.3,1.3,0,0,1,37,59.8Z"/><path class="cls-2" d="M3.5,65.3a1.3,1.3,0,0,1-.92-2.22,1.36,1.36,0,0,1,1.84,0A1.3,1.3,0,0,1,3.5,65.3Z"/><path class="cls-2" d="M2.5,69.3a1.3,1.3,0,0,1-.92-2.22,1.36,1.36,0,0,1,1.84,0A1.32,1.32,0,0,1,3.8,68a1.28,1.28,0,0,1-.38.92A1.32,1.32,0,0,1,2.5,69.3Z"/><path class="cls-2" d="M11.5,69.05a1.34,1.34,0,0,1-.92-.38,1.32,1.32,0,0,1-.38-.92,1.34,1.34,0,0,1,.38-.92,1.36,1.36,0,0,1,1.84,0,1.34,1.34,0,0,1,.38.92,1.3,1.3,0,0,1-1.3,1.3Z"/><path class="cls-2" d="M10.25,65.05a1.34,1.34,0,0,1-.92-.38,1.3,1.3,0,0,1,0-1.84,1.36,1.36,0,0,1,1.84,0,1.3,1.3,0,0,1-.92,2.22Z"/><path class="cls-2" d="M14.5,66.8a1.3,1.3,0,0,1-.92-2.22,1.36,1.36,0,0,1,1.84,0,1.34,1.34,0,0,1,.38.92,1.32,1.32,0,0,1-.38.92A1.3,1.3,0,0,1,14.5,66.8Z"/><path class="cls-2" d="M11.5,69.05a1.34,1.34,0,0,1-.92-.38,1.32,1.32,0,0,1-.38-.92,1.34,1.34,0,0,1,.38-.92,1.36,1.36,0,0,1,1.84,0,1.34,1.34,0,0,1,.38.92,1.3,1.3,0,0,1-1.3,1.3Z"/><path class="cls-2" d="M18.25,66.3a1.34,1.34,0,0,1-.92-.38A1.32,1.32,0,0,1,17,65a1.3,1.3,0,0,1,2.22-.92,1.3,1.3,0,0,1-.92,2.22Z"/><path class="cls-2" d="M22.5,65.55a1.34,1.34,0,0,1-.92-.38,1.32,1.32,0,0,1-.38-.92,1.3,1.3,0,1,1,2.6,0,1.3,1.3,0,0,1-1.3,1.3Z"/><path class="cls-2" d="M21.75,68.55a1.34,1.34,0,0,1-.92-.38,1.3,1.3,0,0,1,0-1.84,1.3,1.3,0,0,1,2.22.92,1.32,1.32,0,0,1-.38.92A1.3,1.3,0,0,1,21.75,68.55Z"/><path class="cls-2" d="M26.75,69.8a1.34,1.34,0,0,1-.92-.38,1.3,1.3,0,0,1,0-1.84,1.36,1.36,0,0,1,1.84,0,1.3,1.3,0,0,1-.92,2.22Z"/><path class="cls-2" d="M27,66.3a1.34,1.34,0,0,1-.92-.38,1.3,1.3,0,0,1,0-1.84,1.35,1.35,0,0,1,1.84,0A1.3,1.3,0,0,1,27,66.3Z"/><path class="cls-2" d="M31,68.8a1.34,1.34,0,0,1-.92-.38,1.3,1.3,0,0,1,0-1.84,1.35,1.35,0,0,1,1.84,0A1.3,1.3,0,0,1,31,68.8Z"/><path class="cls-2" d="M34.25,67.3a1.34,1.34,0,0,1-.92-.38,1.3,1.3,0,0,1,0-1.84,1.35,1.35,0,0,1,1.84,0,1.3,1.3,0,0,1-.92,2.22Z"/><path class="cls-2" d="M7.25,67.3a1.34,1.34,0,0,1-.92-.38,1.3,1.3,0,0,1,0-1.84,1.35,1.35,0,0,1,1.84,0,1.3,1.3,0,0,1-.92,2.22Z"/><path class="cls-2" d="M41.5,52.3a1.34,1.34,0,0,1-.92-.38,1.3,1.3,0,0,1,0-1.84,1.36,1.36,0,0,1,1.84,0,1.3,1.3,0,0,1-.92,2.22Z"/><path class="cls-2" d="M44,58.55a1.34,1.34,0,0,1-.92-.38,1.3,1.3,0,0,1,0-1.84,1.36,1.36,0,0,1,1.84,0A1.3,1.3,0,0,1,44,58.55Z"/><path class="cls-2" d="M44.5,54.55a1.3,1.3,0,0,1-.92-2.22,1.36,1.36,0,0,1,1.84,0,1.3,1.3,0,0,1-.92,2.22Z"/><path class="cls-2" d="M49.25,53.55a1.3,1.3,0,0,1-1.3-1.3,1.34,1.34,0,0,1,.38-.92,1.36,1.36,0,0,1,1.84,0,1.3,1.3,0,0,1,0,1.84A1.3,1.3,0,0,1,49.25,53.55Z"/><path class="cls-2" d="M50,58.3a1.3,1.3,0,0,1-.92-2.22,1.36,1.36,0,0,1,1.84,0A1.3,1.3,0,0,1,50,58.3Z"/><path class="cls-2" d="M47,61.05a1.34,1.34,0,0,1-.92-.38,1.3,1.3,0,0,1,0-1.84,1.36,1.36,0,0,1,1.84,0A1.3,1.3,0,0,1,47,61.05Z"/><path class="cls-2" d="M43.75,62.8a1.34,1.34,0,0,1-.92-.38,1.3,1.3,0,0,1,0-1.84,1.35,1.35,0,0,1,1.84,0,1.3,1.3,0,0,1-.92,2.22Z"/><path class="cls-2" d="M44,58.55a1.34,1.34,0,0,1-.92-.38,1.3,1.3,0,0,1,0-1.84,1.36,1.36,0,0,1,1.84,0A1.3,1.3,0,0,1,44,58.55Z"/><path class="cls-2" d="M41.75,66.05a1.34,1.34,0,0,1-.92-.38,1.3,1.3,0,0,1,0-1.84,1.36,1.36,0,0,1,1.84,0,1.3,1.3,0,0,1-.92,2.22Z"/><path class="cls-2" d="M46.5,65.8a1.34,1.34,0,0,1-.92-.38,1.3,1.3,0,0,1,0-1.84,1.36,1.36,0,0,1,1.84,0,1.3,1.3,0,0,1-.92,2.22Z"/><path class="cls-2" d="M50,67.05a1.34,1.34,0,0,1-.92-.38,1.3,1.3,0,0,1,0-1.84,1.3,1.3,0,0,1,1.84,1.84A1.32,1.32,0,0,1,50,67.05Z"/><path class="cls-2" d="M50.25,62.55a1.34,1.34,0,0,1-.92-.38,1.3,1.3,0,0,1,0-1.84,1.36,1.36,0,0,1,1.84,0,1.3,1.3,0,0,1-.92,2.22Z"/><path class="cls-2" d="M3.25,61.05a1.3,1.3,0,0,1-.92-2.22,1.35,1.35,0,0,1,1.84,0,1.34,1.34,0,0,1,.38.92,1.3,1.3,0,0,1-1.3,1.3Z"/><path class="cls-2" d="M3.75,56.3a1.3,1.3,0,0,1-.92-2.22,1.36,1.36,0,0,1,1.84,0,1.3,1.3,0,0,1-.92,2.22Z"/><path class="cls-2" d="M70,69.05a1.34,1.34,0,0,1-.92-.38,1.3,1.3,0,0,1,0-1.84,1.36,1.36,0,0,1,1.84,0A1.3,1.3,0,0,1,70,69.05Z"/><path class="cls-2" d="M66.75,67.55a1.3,1.3,0,0,1-.92-2.22,1.35,1.35,0,0,1,1.84,0,1.3,1.3,0,0,1,0,1.84A1.3,1.3,0,0,1,66.75,67.55Z"/><path class="cls-2" d="M72.75,66.55a1.34,1.34,0,0,1-.92-.38,1.3,1.3,0,0,1,0-1.84,1.36,1.36,0,0,1,1.84,0,1.3,1.3,0,0,1-.92,2.22Z"/><path class="cls-2" d="M69.5,53.8a1.34,1.34,0,0,1-.92-.38,1.3,1.3,0,0,1,0-1.84,1.36,1.36,0,0,1,1.84,0,1.3,1.3,0,0,1-.92,2.22Z"/><path class="cls-2" d="M69.25,59.05a1.3,1.3,0,0,1-.92-2.22,1.36,1.36,0,0,1,1.84,0,1.3,1.3,0,0,1-.92,2.22Z"/><path class="cls-2" d="M69.5,53.8a1.34,1.34,0,0,1-.92-.38,1.3,1.3,0,0,1,0-1.84,1.36,1.36,0,0,1,1.84,0,1.3,1.3,0,0,1-.92,2.22Z"/><path class="cls-2" d="M71,62.8a1.3,1.3,0,0,1-.92-2.22,1.36,1.36,0,0,1,1.84,0A1.3,1.3,0,0,1,71,62.8Z"/><path class="cls-2" d="M39.25,63.3a1.3,1.3,0,0,1-.92-2.22,1.35,1.35,0,0,1,1.84,0,1.3,1.3,0,0,1,0,1.84A1.3,1.3,0,0,1,39.25,63.3Z"/><path class="cls-2" d="M37.75,66.3a1.3,1.3,0,0,1-.92-2.22,1.35,1.35,0,0,1,1.84,0,1.3,1.3,0,0,1,0,1.84A1.3,1.3,0,0,1,37.75,66.3Z"/><path class="cls-2" d="M53,60.55a1.34,1.34,0,0,1-.92-.38,1.32,1.32,0,0,1-.38-.92,1.34,1.34,0,0,1,.38-.92,1.36,1.36,0,0,1,1.84,0,1.34,1.34,0,0,1,.38.92,1.32,1.32,0,0,1-.38.92A1.3,1.3,0,0,1,53,60.55Z"/><path class="cls-2" d="M56,61.05a1.3,1.3,0,0,1-.92-2.22,1.36,1.36,0,0,1,1.84,0A1.3,1.3,0,0,1,56,61.05Z"/><path class="cls-2" d="M53.5,65.05a1.34,1.34,0,0,1-.92-.38,1.3,1.3,0,0,1,0-1.84,1.36,1.36,0,0,1,1.84,0,1.3,1.3,0,0,1-.92,2.22Z"/><path class="cls-2" d="M57.5,64.8a1.34,1.34,0,0,1-.92-.38,1.3,1.3,0,0,1,0-1.84,1.36,1.36,0,0,1,1.84,0,1.3,1.3,0,0,1-.92,2.22Z"/><path class="cls-2" d="M53,60.55a1.34,1.34,0,0,1-.92-.38,1.32,1.32,0,0,1-.38-.92,1.34,1.34,0,0,1,.38-.92,1.36,1.36,0,0,1,1.84,0,1.34,1.34,0,0,1,.38.92,1.32,1.32,0,0,1-.38.92A1.3,1.3,0,0,1,53,60.55Z"/><path class="cls-2" d="M56,61.05a1.3,1.3,0,0,1-.92-2.22,1.36,1.36,0,0,1,1.84,0A1.3,1.3,0,0,1,56,61.05Z"/><path class="cls-2" d="M53.75,56.55a1.3,1.3,0,0,1-.92-2.22,1.36,1.36,0,0,1,1.84,0,1.3,1.3,0,0,1,0,1.84A1.3,1.3,0,0,1,53.75,56.55Z"/><path class="cls-2" d="M57.75,58.05a1.34,1.34,0,0,1-.92-.38,1.3,1.3,0,0,1,0-1.84,1.36,1.36,0,0,1,1.84,0,1.3,1.3,0,0,1-.92,2.22Z"/><path class="cls-2" d="M60,61.3a1.34,1.34,0,0,1-.92-.38,1.3,1.3,0,0,1,0-1.84,1.36,1.36,0,0,1,1.84,0A1.3,1.3,0,0,1,60,61.3Z"/><path class="cls-2" d="M62,63.55a1.3,1.3,0,0,1-1.3-1.3,1.34,1.34,0,0,1,.38-.92,1.36,1.36,0,0,1,1.84,0,1.3,1.3,0,0,1,0,1.84A1.3,1.3,0,0,1,62,63.55Z"/><path class="cls-2" d="M62.5,67.55a1.34,1.34,0,0,1-.92-.38,1.3,1.3,0,0,1,0-1.84,1.36,1.36,0,0,1,1.84,0,1.3,1.3,0,0,1-.92,2.22Z"/><path class="cls-2" d="M64.5,60.05a1.3,1.3,0,0,1-.92-2.22,1.35,1.35,0,0,1,1.84,0,1.3,1.3,0,0,1,0,1.84A1.3,1.3,0,0,1,64.5,60.05Z"/><path class="cls-2" d="M62.75,57.55a1.3,1.3,0,0,1-1.3-1.3,1.32,1.32,0,0,1,.38-.92,1.36,1.36,0,0,1,1.84,0,1.3,1.3,0,0,1-.92,2.22Z"/><path class="cls-2" d="M58.5,54.55a1.34,1.34,0,0,1-.92-.38,1.3,1.3,0,0,1,0-1.84,1.36,1.36,0,0,1,1.84,0,1.3,1.3,0,0,1-.92,2.22Z"/><path class="cls-2" d="M66.5,56.3a1.34,1.34,0,0,1-.92-.38,1.3,1.3,0,0,1,0-1.84,1.36,1.36,0,0,1,1.84,0,1.3,1.3,0,0,1-.92,2.22Z"/><path class="cls-2" d="M66.75,63.55a1.3,1.3,0,0,1-.92-2.22,1.35,1.35,0,0,1,1.84,0,1.3,1.3,0,0,1,0,1.84A1.3,1.3,0,0,1,66.75,63.55Z"/><path class="cls-2" d="M53.5,53.05a1.34,1.34,0,0,1-.92-.38,1.3,1.3,0,0,1,0-1.84,1.36,1.36,0,0,1,1.84,0,1.3,1.3,0,0,1-.92,2.22Z"/><path class="cls-2" d="M58.25,68.3a1.3,1.3,0,0,1-.92-2.22,1.36,1.36,0,0,1,1.84,0,1.3,1.3,0,0,1,0,1.84A1.3,1.3,0,0,1,58.25,68.3Z"/><path class="cls-2" d="M64.25,70.3a1.34,1.34,0,0,1-.92-.38,1.3,1.3,0,0,1,0-1.84,1.36,1.36,0,0,1,1.84,0,1.3,1.3,0,0,1-.92,2.22Z"/><path class="cls-2" d="M65.25,52.8a1.3,1.3,0,0,1-.92-2.22,1.36,1.36,0,0,1,1.84,0,1.3,1.3,0,0,1-.92,2.22Z"/><path class="cls-2" d="M9.5,26.3a1.34,1.34,0,0,1-.92-.38,1.3,1.3,0,0,1,0-1.84,1.36,1.36,0,0,1,1.84,0,1.28,1.28,0,0,1,.38.92,1.29,1.29,0,0,1-.38.92A1.32,1.32,0,0,1,9.5,26.3Z"/><path class="cls-2" d="M5.75,62.8a1.34,1.34,0,0,1-.92-.38,1.3,1.3,0,0,1,0-1.84,1.36,1.36,0,0,1,1.84,0,1.3,1.3,0,0,1,0,1.84A1.32,1.32,0,0,1,5.75,62.8Z"/><path class="cls-2" d="M30.25,63.8a1.34,1.34,0,0,1-.92-.38,1.3,1.3,0,0,1,0-1.84,1.36,1.36,0,0,1,1.84,0,1.3,1.3,0,0,1-.92,2.22Z"/><path class="cls-2" d="M40.5,58.3a1.34,1.34,0,0,1-.92-.38,1.3,1.3,0,0,1,0-1.84,1.36,1.36,0,0,1,1.84,0,1.3,1.3,0,0,1-.92,2.22Z"/><path class="cls-2" d="M47.25,56.8a1.3,1.3,0,0,1-.92-2.22,1.35,1.35,0,0,1,1.84,0,1.3,1.3,0,0,1-.92,2.22Z"/><path class="cls-2" d="M41,72.8a1.34,1.34,0,0,1-.92-.38,1.3,1.3,0,0,1,0-1.84,1.36,1.36,0,0,1,1.84,0A1.3,1.3,0,0,1,41,72.8Z"/><path class="cls-2" d="M11.5,74.05a1.34,1.34,0,0,1-.92-.38,1.3,1.3,0,0,1,0-1.84,1.36,1.36,0,0,1,1.84,0,1.3,1.3,0,0,1-.92,2.22Z"/><path class="cls-2" d="M21.25,73.8a1.34,1.34,0,0,1-.92-.38A1.32,1.32,0,0,1,20,72.5a1.34,1.34,0,0,1,.38-.92,1.36,1.36,0,0,1,1.84,0,1.3,1.3,0,0,1-.92,2.22Z"/><path class="cls-2" d="M17,74.55a1.3,1.3,0,0,1-.92-2.22,1.36,1.36,0,0,1,1.84,0,1.3,1.3,0,0,1,0,1.84A1.3,1.3,0,0,1,17,74.55Z"/><path class="cls-2" d="M27.75,74.55a1.3,1.3,0,0,1-.92-2.22,1.36,1.36,0,0,1,1.84,0,1.3,1.3,0,0,1,0,1.84A1.3,1.3,0,0,1,27.75,74.55Z"/><path class="cls-2" d="M55,73.55a1.3,1.3,0,0,1-.92-2.22,1.36,1.36,0,0,1,1.84,0A1.3,1.3,0,0,1,55,73.55Z"/><path class="cls-2" d="M7.75,74.05a1.34,1.34,0,0,1-.92-.38,1.3,1.3,0,0,1,0-1.84,1.36,1.36,0,0,1,1.84,0,1.32,1.32,0,0,1,.38.92,1.34,1.34,0,0,1-.38.92A1.32,1.32,0,0,1,7.75,74.05Z"/><path class="cls-2" d="M55,73.55a1.3,1.3,0,0,1-.92-2.22,1.36,1.36,0,0,1,1.84,0A1.3,1.3,0,0,1,55,73.55Z"/><path class="cls-2" d="M72.5,10.3A1.3,1.3,0,0,1,71.2,9a1.3,1.3,0,0,1,2.22-.92A1.32,1.32,0,0,1,73.8,9a1.3,1.3,0,0,1-.38.92A1.32,1.32,0,0,1,72.5,10.3Z"/><path class="cls-2" d="M72.75,13.55a1.34,1.34,0,0,1-.92-.38,1.3,1.3,0,0,1,0-1.84,1.35,1.35,0,0,1,1.84,0,1.3,1.3,0,0,1-.92,2.22Z"/><path class="cls-2" d="M73,20.8a1.3,1.3,0,0,1-.92-2.22,1.36,1.36,0,0,1,1.84,0A1.3,1.3,0,0,1,73,20.8Z"/><path class="cls-2" d="M72.25,24.05a1.3,1.3,0,0,1-.92-2.22,1.36,1.36,0,0,1,1.84,0,1.3,1.3,0,0,1-.92,2.22Z"/><path class="cls-2" d="M72.75,72.05a1.34,1.34,0,0,1-.92-.38,1.3,1.3,0,0,1,0-1.84,1.35,1.35,0,0,1,1.84,0,1.3,1.3,0,0,1-.92,2.22Z"/><path class="cls-2" d="M73.25,46.55a1.34,1.34,0,0,1-.92-.38,1.3,1.3,0,0,1,0-1.84,1.35,1.35,0,0,1,1.84,0,1.3,1.3,0,0,1-.92,2.22Z"/><path class="cls-2" d="M72.25,57.3a1.3,1.3,0,0,1-.92-2.22,1.36,1.36,0,0,1,1.84,0,1.3,1.3,0,0,1-.92,2.22Z"/><path class="cls-2" d="M73.25,53.3a1.3,1.3,0,0,1-.92-2.22,1.36,1.36,0,0,1,1.84,0,1.3,1.3,0,0,1-.92,2.22Z"/><path class="cls-2" d="M46.25,71.8a1.34,1.34,0,0,1-.92-.38A1.32,1.32,0,0,1,45,70.5a1.34,1.34,0,0,1,.38-.92,1.36,1.36,0,0,1,1.84,0,1.34,1.34,0,0,1,.38.92,1.3,1.3,0,0,1-1.3,1.3Z"/><path class="cls-2" d="M40.5,69.3a1.34,1.34,0,0,1-.92-.38,1.3,1.3,0,0,1,0-1.84,1.36,1.36,0,0,1,1.84,0,1.3,1.3,0,0,1-.92,2.22Z"/><path class="cls-2" d="M-1.25,3.3a1.34,1.34,0,0,1-.92-.38A1.34,1.34,0,0,1-2.55,2a1.32,1.32,0,0,1,.38-.92,1.36,1.36,0,0,1,1.84,0A1.32,1.32,0,0,1,.05,2a1.32,1.32,0,0,1-.38.92A1.32,1.32,0,0,1-1.25,3.3Z"/><path class="cls-2" d="M-.5,18.05a1.34,1.34,0,0,1-.92-.38,1.32,1.32,0,0,1-.38-.92,1.32,1.32,0,0,1,.38-.92,1.36,1.36,0,0,1,1.84,0,1.32,1.32,0,0,1,.38.92,1.32,1.32,0,0,1-.38.92A1.32,1.32,0,0,1-.5,18.05Z"/><path class="cls-2" d="M-.75,29.05a1.34,1.34,0,0,1-.92-.38A1.32,1.32,0,0,1-2,27.75a1.32,1.32,0,0,1,.38-.92,1.36,1.36,0,0,1,1.84,0,1.32,1.32,0,0,1,.38.92,1.32,1.32,0,0,1-.38.92A1.32,1.32,0,0,1-.75,29.05Z"/><path class="cls-2" d="M-.5,39.05a1.32,1.32,0,0,1-.92-.38,1.32,1.32,0,0,1-.38-.92,1.32,1.32,0,0,1,.38-.92,1.36,1.36,0,0,1,1.84,0,1.32,1.32,0,0,1,.38.92,1.32,1.32,0,0,1-.38.92A1.32,1.32,0,0,1-.5,39.05Z"/><path class="cls-2" d="M-1.25,43.05a1.34,1.34,0,0,1-.92-.38,1.32,1.32,0,0,1-.38-.92,1.34,1.34,0,0,1,.38-.92,1.36,1.36,0,0,1,1.84,0,1.32,1.32,0,0,1,.38.92,1.32,1.32,0,0,1-.38.92A1.32,1.32,0,0,1-1.25,43.05Z"/><path class="cls-2" d="M.75,66.55a1.34,1.34,0,0,1-.92-.38,1.3,1.3,0,0,1,0-1.84,1.36,1.36,0,0,1,1.84,0,1.3,1.3,0,0,1,0,1.84A1.32,1.32,0,0,1,.75,66.55Z"/><path class="cls-2" d="M-1,62.8a1.32,1.32,0,0,1-.92-.38,1.32,1.32,0,0,1-.38-.92,1.32,1.32,0,0,1,.38-.92,1.36,1.36,0,0,1,1.84,0,1.32,1.32,0,0,1,.38.92,1.32,1.32,0,0,1-.38.92A1.32,1.32,0,0,1-1,62.8Z"/><path class="cls-2" d="M.5,10.3a1.32,1.32,0,0,1-.92-.38A1.32,1.32,0,0,1-.8,9a1.34,1.34,0,0,1,.38-.92,1.34,1.34,0,0,1,1.84,0A1.32,1.32,0,0,1,1.8,9a1.3,1.3,0,0,1-.38.92A1.32,1.32,0,0,1,.5,10.3Z"/><path class="cls-2" d="M.75,13.55a1.34,1.34,0,0,1-.92-.38,1.3,1.3,0,0,1,0-1.84,1.35,1.35,0,0,1,1.84,0,1.3,1.3,0,0,1,0,1.84A1.32,1.32,0,0,1,.75,13.55Z"/><path class="cls-2" d="M1,20.8a1.32,1.32,0,0,1-.92-.38,1.3,1.3,0,0,1,0-1.84,1.36,1.36,0,0,1,1.84,0,1.3,1.3,0,0,1,0,1.84A1.32,1.32,0,0,1,1,20.8Z"/><path class="cls-2" d="M.25,24.05a1.32,1.32,0,0,1-.92-.38,1.3,1.3,0,0,1,0-1.84,1.36,1.36,0,0,1,1.84,0,1.3,1.3,0,0,1,0,1.84A1.32,1.32,0,0,1,.25,24.05Z"/><path class="cls-2" d="M.75,72.05a1.34,1.34,0,0,1-.92-.38,1.3,1.3,0,0,1,0-1.84,1.35,1.35,0,0,1,1.84,0,1.3,1.3,0,0,1,0,1.84A1.32,1.32,0,0,1,.75,72.05Z"/><path class="cls-2" d="M1.25,46.55a1.34,1.34,0,0,1-.92-.38,1.3,1.3,0,0,1,0-1.84,1.35,1.35,0,0,1,1.84,0,1.3,1.3,0,0,1,0,1.84A1.32,1.32,0,0,1,1.25,46.55Z"/><path class="cls-2" d="M.25,57.3a1.32,1.32,0,0,1-.92-.38,1.3,1.3,0,0,1,0-1.84,1.36,1.36,0,0,1,1.84,0,1.3,1.3,0,0,1,0,1.84A1.32,1.32,0,0,1,.25,57.3Z"/><path class="cls-2" d="M1.25,53.3a1.32,1.32,0,0,1-.92-.38,1.3,1.3,0,0,1,0-1.84,1.36,1.36,0,0,1,1.84,0,1.3,1.3,0,0,1,0,1.84A1.32,1.32,0,0,1,1.25,53.3Z"/><path class="cls-2" d="M67.75.55a1.32,1.32,0,0,1-.92-.38,1.32,1.32,0,0,1-.38-.92,1.32,1.32,0,0,1,.38-.92,1.36,1.36,0,0,1,1.84,0,1.32,1.32,0,0,1,.38.92,1.32,1.32,0,0,1-.38.92A1.3,1.3,0,0,1,67.75.55Z"/><path class="cls-2" d="M55,1.55a1.32,1.32,0,0,1-.92-.38A1.32,1.32,0,0,1,53.7.25a1.32,1.32,0,0,1,.38-.92,1.36,1.36,0,0,1,1.84,0,1.32,1.32,0,0,1,.38.92,1.32,1.32,0,0,1-.38.92A1.32,1.32,0,0,1,55,1.55Z"/><path class="cls-2" d="M41,.8a1.34,1.34,0,0,1-.92-.38A1.32,1.32,0,0,1,39.7-.5a1.32,1.32,0,0,1,.38-.92,1.36,1.36,0,0,1,1.84,0,1.32,1.32,0,0,1,.38.92,1.32,1.32,0,0,1-.38.92A1.32,1.32,0,0,1,41,.8Z"/><path class="cls-2" d="M11.5,2.05a1.34,1.34,0,0,1-.92-.38A1.32,1.32,0,0,1,10.2.75a1.32,1.32,0,0,1,.38-.92,1.36,1.36,0,0,1,1.84,0,1.32,1.32,0,0,1,.38.92,1.32,1.32,0,0,1-.38.92A1.32,1.32,0,0,1,11.5,2.05Z"/><path class="cls-2" d="M21.25,1.8a1.34,1.34,0,0,1-.92-.38A1.32,1.32,0,0,1,20,.5a1.34,1.34,0,0,1,.38-.92,1.36,1.36,0,0,1,1.84,0,1.32,1.32,0,0,1,.38.92,1.32,1.32,0,0,1-.38.92A1.32,1.32,0,0,1,21.25,1.8Z"/><path class="cls-2" d="M17,2.55a1.32,1.32,0,0,1-.92-.38,1.32,1.32,0,0,1-.38-.92,1.32,1.32,0,0,1,.38-.92,1.36,1.36,0,0,1,1.84,0,1.32,1.32,0,0,1,.38.92,1.32,1.32,0,0,1-.38.92A1.3,1.3,0,0,1,17,2.55Z"/><path class="cls-2" d="M27.75,2.55a1.32,1.32,0,0,1-.92-.38,1.32,1.32,0,0,1-.38-.92,1.32,1.32,0,0,1,.38-.92,1.36,1.36,0,0,1,1.84,0,1.32,1.32,0,0,1,.38.92,1.32,1.32,0,0,1-.38.92A1.3,1.3,0,0,1,27.75,2.55Z"/><path class="cls-2" d="M55,1.55a1.32,1.32,0,0,1-.92-.38A1.32,1.32,0,0,1,53.7.25a1.32,1.32,0,0,1,.38-.92,1.36,1.36,0,0,1,1.84,0,1.32,1.32,0,0,1,.38.92,1.32,1.32,0,0,1-.38.92A1.32,1.32,0,0,1,55,1.55Z"/><path class="cls-2" d="M7.75,2.05a1.34,1.34,0,0,1-.92-.38A1.32,1.32,0,0,1,6.45.75a1.32,1.32,0,0,1,.38-.92,1.36,1.36,0,0,1,1.84,0,1.32,1.32,0,0,1,.38.92,1.34,1.34,0,0,1-.38.92A1.32,1.32,0,0,1,7.75,2.05Z"/><path class="cls-2" d="M55,1.55a1.32,1.32,0,0,1-.92-.38A1.32,1.32,0,0,1,53.7.25a1.32,1.32,0,0,1,.38-.92,1.36,1.36,0,0,1,1.84,0,1.32,1.32,0,0,1,.38.92,1.32,1.32,0,0,1-.38.92A1.32,1.32,0,0,1,55,1.55Z"/><path class="cls-2" d="M72.75.05a1.34,1.34,0,0,1-.92-.38,1.32,1.32,0,0,1-.38-.92,1.32,1.32,0,0,1,.38-.92,1.35,1.35,0,0,1,1.84,0,1.32,1.32,0,0,1,.38.92,1.32,1.32,0,0,1-.38.92A1.32,1.32,0,0,1,72.75.05Z"/><path class="cls-2" d="M.75.05A1.34,1.34,0,0,1-.17-.33a1.32,1.32,0,0,1-.38-.92,1.32,1.32,0,0,1,.38-.92,1.35,1.35,0,0,1,1.84,0,1.32,1.32,0,0,1,.38.92,1.32,1.32,0,0,1-.38.92A1.32,1.32,0,0,1,.75.05Z"/></pattern></defs><title>Sarah-SearchEngines-Post</title><rect class="cls-3" width="800" height="400"/><rect class="cls-4" width="800" height="400"/><path class="cls-5" d="M221.46,59.72A51.1,51.1,0,0,0,206.18,62a24.85,24.85,0,0,0-35.5-8.18,36.51,36.51,0,0,0-35.41-27.61c-16.78,0-36,15.34-42,32.11-14.49,1.3-25.7,9.91-25.7,20.36,0,11.34,13.21,20.53,29.5,20.53.72,0,1.43,0,2.14-.06v.06h36l93.45-.48c14.68-2,25.66-9.85,25.66-19.25C254.38,68.56,239.64,59.72,221.46,59.72Z"/><path class="cls-5" d="M606.14,6.87a51.16,51.16,0,0,0-15.29,2.26A24.84,24.84,0,0,0,555.36,1,36.51,36.51,0,0,0,520-26.66c-16.78,0-36,15.34-42,32.11-14.5,1.3-25.7,9.92-25.7,20.36,0,11.34,13.2,20.54,29.49,20.54.72,0,1.44,0,2.14-.06v.06h36l93.44-.49c14.69-2,25.67-9.84,25.67-19.25C639.06,15.71,624.32,6.87,606.14,6.87Z"/><path class="cls-5" d="M793.27,158a23.57,23.57,0,0,0-7,1,11.42,11.42,0,0,0-16.33-3.76,16.81,16.81,0,0,0-16.29-12.71c-7.72,0-16.56,7.06-19.31,14.78-6.67.59-11.82,4.56-11.82,9.36,0,5.22,6.08,9.45,13.57,9.45.33,0,.66,0,1,0v0h16.58l43-.22c6.75-.92,11.8-4.53,11.8-8.86C808.41,162,801.63,158,793.27,158Z"/><path class="cls-5" d="M626.88,382.38a32.76,32.76,0,0,0-9.79,1.45,15.92,15.92,0,0,0-22.74-5.23,23.39,23.39,0,0,0-22.67-17.69c-10.75,0-23.06,9.82-26.88,20.57-9.28.83-16.46,6.34-16.46,13,0,7.27,8.46,13.16,18.89,13.16.46,0,.92,0,1.37,0v0h23.08l59.84-.32c9.41-1.26,16.44-6.3,16.44-12.33C648,388,638.52,382.38,626.88,382.38Z"/><path class="cls-5" d="M171.28,327.29a63.2,63.2,0,0,0-18.89,2.79A30.66,30.66,0,0,0,108.55,320a45.12,45.12,0,0,0-43.74-34.12c-20.74,0-44.47,18.95-51.84,39.67-17.91,1.6-31.75,12.25-31.75,25.15,0,14,16.32,25.37,36.44,25.37.89,0,1.77,0,2.64-.08v.08H64.81l115.43-.6c18.14-2.45,31.7-12.17,31.7-23.79C211.94,338.21,193.74,327.29,171.28,327.29Z"/><rect class="cls-6" x="205.67" y="65.81" width="388.65" height="268.39" rx="14.99"/><path class="cls-7" d="M205.67,89.51V78.57a12.76,12.76,0,0,1,12.76-12.76H581.57a12.76,12.76,0,0,1,12.76,12.76V89.51Z"/><circle class="cls-3" cx="219.49" cy="79.11" r="4.88"/><circle class="cls-8" cx="234.44" cy="79.11" r="4.88"/><circle class="cls-9" cx="249.4" cy="79.11" r="4.88"/><path class="cls-10" d="M363.36,83.35,362.59,78a7.19,7.19,0,0,0-7.12-6.16h-85.2A7.18,7.18,0,0,0,263.15,78l-.77,5.35a7.19,7.19,0,0,1-7.12,6.16H205.67v22.38H594.33V89.51H370.48A7.18,7.18,0,0,1,363.36,83.35Z"/><path class="cls-11" d="M376.52,79.23h-2v-2a.24.24,0,0,0-.24-.24h-.78a.24.24,0,0,0-.24.24v2h-2a.24.24,0,0,0-.25.24v.77a.25.25,0,0,0,.25.25h2v2a.25.25,0,0,0,.24.25h.78a.25.25,0,0,0,.24-.25v-2h2a.25.25,0,0,0,.24-.25v-.77A.24.24,0,0,0,376.52,79.23Z"/><rect class="cls-6" x="261.63" y="95.74" width="308.46" height="10.82" rx="5.41"/><polygon class="cls-12" points="563.43 97.9 564.48 100.04 566.84 100.38 565.14 102.05 565.54 104.4 563.43 103.29 561.32 104.4 561.72 102.05 560.01 100.38 562.37 100.04 563.43 97.9"/><circle class="cls-7" cx="578.77" cy="101.15" r="5.41"/><circle class="cls-7" cx="588.15" cy="97.69" r="0.87"/><circle class="cls-7" cx="588.15" cy="101.15" r="0.87"/><circle class="cls-7" cx="588.15" cy="104.61" r="0.87"/><path class="cls-11" d="M223.66,100.44h-7.59l2.53-2.8a.72.72,0,0,0,0-1h0a.72.72,0,0,0-1,.05l-3.6,4a.73.73,0,0,0,0,1l3.6,4a.72.72,0,0,0,1,0,.71.71,0,0,0,0-1l-2.53-2.81h7.59a.71.71,0,0,0,.71-.71h0A.71.71,0,0,0,223.66,100.44Z"/><path class="cls-7" d="M229.85,101.86h7.59l-2.53,2.81a.71.71,0,0,0,.05,1h0a.72.72,0,0,0,1,0l3.6-4a.73.73,0,0,0,0-1l-3.6-4a.72.72,0,0,0-1-.05.71.71,0,0,0-.05,1l2.53,2.81h-7.59a.71.71,0,0,0-.71.71h0A.71.71,0,0,0,229.85,101.86Z"/><path class="cls-7" d="M256.67,98.38l-.38-.19a.51.51,0,0,0-.69.23l-.36.7a4.57,4.57,0,0,0-4.59-2.63A4.65,4.65,0,0,0,246.5,101a4.6,4.6,0,0,0,8.6,2.28.47.47,0,0,0-.22-.66l-.51-.21a.43.43,0,0,0-.55.17,3.15,3.15,0,1,1,0-3.07l-.79-.28a.53.53,0,0,0-.66.32l-.14.4a.52.52,0,0,0,.32.66l2.59.91a.53.53,0,0,0,.63-.26l1.12-2.23A.51.51,0,0,0,256.67,98.38Z"/><rect class="cls-13" x="267.86" y="224.1" width="264.27" height="16.18" rx="8.09"/><path class="cls-7" d="M274.93,236.27l-2.72-2.72a3,3,0,1,0-2.86,1,3,3,0,0,0,2.28-.44l2.75,2.75a.26.26,0,0,0,.38,0l.17-.17A.26.26,0,0,0,274.93,236.27Zm-7.29-4.18a2.38,2.38,0,1,1,1.87,1.87A2.38,2.38,0,0,1,267.64,232.09Z"/><path class="cls-10" d="M318.34,189.09a20,20,0,0,0,9.57,2.52c4.64,0,7.22-2.17,7.22-5.4,0-3-2-4.76-7-6.58-6.52-2.35-10.69-5.81-10.69-11.51,0-6.46,5.4-11.39,14-11.39a21,21,0,0,1,9.51,2l-1.76,5.82a16.68,16.68,0,0,0-7.87-1.88c-4.58,0-6.58,2.46-6.58,4.76,0,3.05,2.29,4.46,7.58,6.51,6.87,2.59,10.22,6,10.22,11.75,0,6.34-4.82,11.86-15,11.86a23.54,23.54,0,0,1-10.69-2.46Z"/><path class="cls-10" d="M354.16,184.68c.18,5.17,4.23,7.4,8.81,7.4a21.53,21.53,0,0,0,7.93-1.29l1.06,5a27,27,0,0,1-10,1.76c-9.28,0-14.74-5.69-14.74-14.44,0-7.93,4.82-15.39,14-15.39s12.33,7.63,12.33,13.92a17.53,17.53,0,0,1-.23,3.05Zm12.57-5.05c.06-2.64-1.12-7-5.93-7-4.47,0-6.34,4.05-6.64,7Z"/><path class="cls-10" d="M395.45,197l-.47-3.17h-.18a10.61,10.61,0,0,1-8.45,3.81c-5.76,0-9-4.17-9-8.51,0-7.23,6.4-10.87,17-10.81v-.47c0-1.88-.76-5-5.81-5a15.21,15.21,0,0,0-7.7,2.11l-1.4-4.7a20.59,20.59,0,0,1,10.33-2.52c9.16,0,11.81,5.81,11.81,12v10.34A45,45,0,0,0,402,197Zm-.94-14c-5.11-.12-10,1-10,5.34a3.8,3.8,0,0,0,4.12,4.11,5.83,5.83,0,0,0,5.63-3.93,5.12,5.12,0,0,0,.24-1.59Z"/><path class="cls-10" d="M409.19,177.58c0-3.88-.06-6.64-.23-9.23h6.28l.23,5.47h.24a8.52,8.52,0,0,1,7.81-6.11,7.33,7.33,0,0,1,1.7.18v6.81a9.75,9.75,0,0,0-2.11-.24,6.37,6.37,0,0,0-6.46,5.46,12.26,12.26,0,0,0-.23,2.24V197h-7.23Z"/><path class="cls-10" d="M450.6,196.08a21.08,21.08,0,0,1-8.11,1.46c-8.93,0-14.74-5.69-14.74-14.56,0-8.58,5.87-15.27,15.92-15.27a18.13,18.13,0,0,1,7,1.35l-1.3,5.4a12.67,12.67,0,0,0-5.46-1.11c-5.52,0-8.81,4.05-8.75,9.28,0,5.87,3.82,9.22,8.75,9.22a14.08,14.08,0,0,0,5.7-1.12Z"/><path class="cls-10" d="M455.94,155.26h7.28v17h.12a9.72,9.72,0,0,1,3.58-3.29,9.85,9.85,0,0,1,4.94-1.29c4.87,0,10,3.23,10,12.39V197h-7.22v-16c0-4.17-1.53-7.28-5.52-7.28a5.89,5.89,0,0,0-5.58,4.05,6,6,0,0,0-.3,2.18V197h-7.28Z"/><rect class="cls-10" x="371.35" y="258.45" width="57.3" height="13.97" rx="6.99"/><g class="cls-14"><circle class="cls-6" cx="601.91" cy="241.59" r="61.16"/></g><rect class="cls-15" x="673.47" y="268.93" width="9.86" height="98.31" transform="translate(-26.22 572.85) rotate(-45)"/><path class="cls-16" d="M601.91,185.36a56.23,56.23,0,1,0,56.23,56.23A56.3,56.3,0,0,0,601.91,185.36Zm0,122.32A66.09,66.09,0,1,1,668,241.59,66.16,66.16,0,0,1,601.91,307.68Z"/><path class="cls-6" d="M644.77,250.41h0a3.09,3.09,0,0,1-2.43-3.45c.11-.82.19-1.65.25-2.47a3.09,3.09,0,0,1,3.07-2.9h0a3.1,3.1,0,0,1,3.08,3.34c-.07.94-.16,1.88-.29,2.82A3.09,3.09,0,0,1,644.77,250.41Z"/><path class="cls-6" d="M641.18,230.54a40.93,40.93,0,0,0-36.37-29.63,3.09,3.09,0,0,1-2.9-3.08h0a3.07,3.07,0,0,1,3.24-3.08,47.14,47.14,0,0,1,42,34.22,3.07,3.07,0,0,1-2.37,3.8h0A3.08,3.08,0,0,1,641.18,230.54Z"/><path class="cls-16" d="M705.91,359.93,657,311a5.52,5.52,0,0,1,0-7.83l7-7a5.55,5.55,0,0,1,7.84,0l49.09,49.09a5.54,5.54,0,0,1-.09,7.92L713.66,360A5.54,5.54,0,0,1,705.91,359.93Z"/><rect class="cls-8" x="275.01" y="328.08" width="43.74" height="43.74" rx="10.97"/><path class="cls-8" d="M310.24,330.31h-3.11v-9.66a10.25,10.25,0,1,0-20.49,0v9.66h-3.11v-9.66a13.36,13.36,0,1,1,26.71,0Z"/><path class="cls-17" d="M301.59,346.25a4.71,4.71,0,1,0-7.82,3.53l-.74,8.57h7.71l-.74-8.57A4.71,4.71,0,0,0,301.59,346.25Z"/><rect class="cls-9" x="122.25" y="125.75" width="98.03" height="59.22" rx="21.09"/><polygon class="cls-18" points="186.85 155.36 162.85 141.5 162.85 169.22 186.85 155.36"/><rect class="cls-19" x="700" y="228.79" width="56.59" height="41.33" rx="6.24"/><path class="cls-9" d="M700.19,259.6l16.46-19.86,16.9,19.89,9.8-8.56,13,10.07s2.4,10.9-9.52,10.9H710.7S698.29,274.16,700.19,259.6Z"/><circle class="cls-8" cx="741.73" cy="239.74" r="4.73"/><path class="cls-8" d="M650.21,106.82l-14.89,9.82a1.12,1.12,0,0,0-.32.33h-4.58a2.15,2.15,0,0,0-2.15,2.15v12.82a2.15,2.15,0,0,0,2.15,2.15H635a1,1,0,0,0,.32.33l14.89,9.64a1.11,1.11,0,0,0,1.72-.94V107.76A1.12,1.12,0,0,0,650.21,106.82Z"/><path class="cls-20" d="M657.49,116.61c4.08,1.08,5.83,5.68,5.78,9.52-.06,4.06-1.89,7.48-5.78,9-1,.38-.55,2,.44,1.6,4.6-1.78,6.92-5.72,7-10.58.06-4.59-2.2-9.85-7-11.12a.83.83,0,0,0-.44,1.6Z"/><path class="cls-20" d="M657.63,137.09a1,1,0,0,1-.6-.21,1.26,1.26,0,0,1-.41-1.14,1.16,1.16,0,0,1,.75-.93c3.53-1.37,5.51-4.45,5.57-8.69,0-3.71-1.66-8.17-5.53-9.2a1.1,1.1,0,0,1-.79-1.39,1.12,1.12,0,0,1,1.4-.83c5.06,1.34,7.29,6.86,7.23,11.43-.08,5.25-2.63,9.12-7.2,10.88A1,1,0,0,1,657.63,137.09Zm.07-21.78a.35.35,0,0,0-.23.07.62.62,0,0,0-.22.32.58.58,0,0,0,0,.37.42.42,0,0,0,.3.22h0c4.21,1.12,6.07,5.88,6,9.84-.06,4.52-2.19,7.82-6,9.29a.51.51,0,0,0-.34.42.61.61,0,0,0,.17.53.35.35,0,0,0,.37,0c4.3-1.66,6.71-5.31,6.78-10.28.06-4.32-2-9.54-6.74-10.79Z"/><path class="cls-20" d="M662.62,112c6,1.62,8.21,8.84,8.1,14.33-.12,5.78-2.53,11-8.1,13.24-1,.39-.54,2,.44,1.59,6.29-2.55,9.18-8.23,9.31-14.83.13-6.25-2.62-14.1-9.31-15.93a.83.83,0,0,0-.44,1.6Z"/><path class="cls-20" d="M662.76,141.5a.89.89,0,0,1-.58-.2,1.22,1.22,0,0,1-.42-1.13,1.19,1.19,0,0,1,.74-1c5-2,7.77-6.61,7.89-12.94.11-5.68-2.3-12.49-7.85-14h0a1.09,1.09,0,0,1-.79-.78,1.25,1.25,0,0,1,.32-1.18,1.1,1.1,0,0,1,1.08-.27c6.75,1.84,9.68,9.71,9.55,16.24-.15,7.33-3.53,12.71-9.51,15.13A1.14,1.14,0,0,1,662.76,141.5Zm.07-30.85a.49.49,0,0,0-.44.38.52.52,0,0,0,0,.37.45.45,0,0,0,.3.23h0c5.89,1.61,8.45,8.72,8.33,14.65-.13,6.62-3.07,11.42-8.29,13.54a.52.52,0,0,0-.34.44.6.6,0,0,0,.17.53.35.35,0,0,0,.36,0c5.73-2.32,9-7.49,9.1-14.54.13-6.29-2.65-13.85-9.06-15.6Z"/><path class="cls-20" d="M667.79,107.72c7.84,2.1,10.78,11.64,10.62,18.82-.18,7.53-3.37,14.29-10.62,17.2-1,.4-.55,2,.44,1.6a18,18,0,0,0,8.33-6.41c2.49-3.61,3.4-8.07,3.5-12.39.18-7.94-3.26-18.12-11.83-20.41a.83.83,0,0,0-.44,1.59Z"/><path class="cls-20" d="M667.93,145.73a1,1,0,0,1-.92-.66,1.23,1.23,0,0,1,.66-1.63c6.52-2.62,10.22-8.63,10.41-16.91.17-7.52-3-16.52-10.37-18.49a1.08,1.08,0,0,1-.79-.77,1.25,1.25,0,0,1,.32-1.19,1.09,1.09,0,0,1,1.08-.27c8.57,2.29,12.26,12.36,12.07,20.74-.12,5.09-1.32,9.32-3.56,12.57a18.34,18.34,0,0,1-8.47,6.52A1.14,1.14,0,0,1,667.93,145.73Zm.07-39.31a.41.41,0,0,0-.3.13.6.6,0,0,0-.15.55.42.42,0,0,0,.33.31h0c7.71,2.06,11,11.36,10.85,19.14-.2,8.56-4,14.77-10.81,17.5a.57.57,0,0,0-.3.77.34.34,0,0,0,.49.22,17.69,17.69,0,0,0,8.18-6.29c2.17-3.14,3.33-7.25,3.44-12.22.19-8.13-3.35-17.89-11.58-20.09Z"/><g id="IzsCdT.tif"><path class="cls-21" d="M101.08,271.7a22,22,0,0,1,8.29-2.8,27.11,27.11,0,0,1,19.69,4.32,26.81,26.81,0,0,1,12,18.66,27.76,27.76,0,0,1-50.91,19.2c-.13-.22-.2-.47-.31-.7.62-.42.5-1.07.48-1.66q-.06-2.21-.18-4.41A2.31,2.31,0,0,1,91.33,302c1.14-.77,2-1.87,3.12-2.73.74-.57.38-2.48-.24-2.28s-1.47-.19-2.1.25-.73.19-1-.27a3.16,3.16,0,0,0-.86-.76c-1.7-1.15-2.72-4.78-1.88-6.76.51.18.42.69.58,1.06.25.63-.06,1.47.67,1.89a2.34,2.34,0,0,1,1,1.25c.93,2,2.6,2.24,4,.63A11.14,11.14,0,0,0,96,292.85c.87-1.39,2.31-1.45,3.57-1.26s1.59,1.47,1.77,2.62c.34,2.16,1.18,4,3.32,4.91.39.17.74.62,1.17.37s.27-.88.18-1.31a4.69,4.69,0,0,1,.34-3.52c.41-.71.76-.92,1.44-.26a13.11,13.11,0,0,1,2.94,3.91,2.14,2.14,0,0,0,2.35,1.27c1-.18.49-1.14.52-1.74,0-1.14.37-2.18,1.52-2.46,2-.47,2.81-2.05,3.89-3.43a1.61,1.61,0,0,0,.3-1.72c-1.11-2-.39-3.36,1.12-4.66.3-.26.4-.48.91-.43a2.11,2.11,0,0,0,2.16-2.63c-.09-.46-.32-.62-.78-.7-.67-.13-1.58.48-1.94-.1s.52-1.29.6-2,.26-1.17,1-1.19,1.91-.52,2.41.39c.73,1.35,1.43.85,2.23.23.65-.5,1.31-1,1.91-1.57.36-.33.92-.7.62-1.29a1.69,1.69,0,0,0-1.38-1c-2.58-.41-5.27-.22-7.71-1.42a1.25,1.25,0,0,0-.64-.08,19.32,19.32,0,0,0-5.07.7,1.33,1.33,0,0,1-1.67-.34c-.64-1-1.62-.78-2.51-1a2.78,2.78,0,0,0-2.71.58,1.63,1.63,0,0,1-2.62-.6c-.3-1.25-1.14-1.35-2.12-1.37C102.38,271.71,101.73,271.71,101.08,271.7Zm25.21,41.84c.45-1.19-.4-1.88-1-2.6-1.38-1.53-2.62-3.43-5.19-2.38-.45.18-.55-.26-.66-.44a2.16,2.16,0,0,0-2.71-.77,14.65,14.65,0,0,0-6.33,3.43c-.51.51-1.12.91-.18,1.61.35.27.23.79.11,1.23-.3,1.13-.59,2.26-.83,3.4-.12.55,0,1.24.75.86,1.29-.62,2.81-.84,3.75-2.13.47-.63,1.19-1.19,2-.59a5.75,5.75,0,0,1,2.43,2.61c.54,1.48,3.35,2.45,4.53,1.5C124.75,317.81,126.63,316.29,126.29,313.54Zm-6.48-10.34a7.32,7.32,0,0,0,.75,3.07c.12.3.47.31.77.39,2.24.57,4.73-.05,6.79,1.4a.47.47,0,0,0,.69-.15c.21-.31-.08-.43-.26-.6a4.69,4.69,0,0,0-3.36-1.46,1.32,1.32,0,0,1-.74-.16C123.06,304.72,121.25,304.69,119.81,303.2Zm-4.07-1.33a1.54,1.54,0,0,0-1.55,1.35c-.16.66.47.69.9.84a3.53,3.53,0,0,1,1.57.87c.56.62.79-.06,1.12-.3s1-.66.62-1.05A6.36,6.36,0,0,0,115.74,301.87Zm-2.85,4c.43-.07,1.13.23,1.3-.43s-.43-.85-.84-1c-1.06-.45-2.16-.8-2-2.33,0-.22-.26-.43-.53-.51s-.31,0-.37.24C109.79,304,110.33,305.7,112.89,305.84Zm9.4-18.58c0-.44-.19-.92-.51-.95s-.49.47-.67.83c-.6,1.19.89,2.4-.06,3.56,0,0,.12.23.21.26a1.29,1.29,0,0,0,1.44-.2c.47-.5,0-.8-.31-1-.58-.46-.9-.9-.34-1.61A2.42,2.42,0,0,0,122.29,287.26Z"/><path class="cls-22" d="M101.08,271.7c.65,0,1.3,0,2,0,1,0,1.82.12,2.12,1.37a1.63,1.63,0,0,0,2.62.6,2.78,2.78,0,0,1,2.71-.58c.89.26,1.87.09,2.51,1a1.33,1.33,0,0,0,1.67.34,19.32,19.32,0,0,1,5.07-.7,1.25,1.25,0,0,1,.64.08c2.44,1.2,5.13,1,7.71,1.42a1.69,1.69,0,0,1,1.38,1c.3.59-.26,1-.62,1.29-.6.56-1.26,1.07-1.91,1.57-.8.62-1.5,1.12-2.23-.23-.5-.91-1.58-.41-2.41-.39s-.87.58-1,1.19-1,1.38-.6,2,1.27,0,1.94.1c.46.08.69.24.78.7a2.11,2.11,0,0,1-2.16,2.63c-.51-.05-.61.17-.91.43-1.51,1.3-2.23,2.7-1.12,4.66A1.61,1.61,0,0,1,119,292c-1.08,1.38-1.94,3-3.89,3.43-1.15.28-1.47,1.32-1.52,2.46,0,.6.53,1.56-.52,1.74a2.14,2.14,0,0,1-2.35-1.27,13.11,13.11,0,0,0-2.94-3.91c-.68-.66-1-.45-1.44.26a4.69,4.69,0,0,0-.34,3.52c.09.43.34,1-.18,1.31s-.78-.2-1.17-.37c-2.14-.95-3-2.75-3.32-4.91-.18-1.15-.56-2.43-1.77-2.62s-2.7-.13-3.57,1.26a11.14,11.14,0,0,1-1.29,1.46c-1.45,1.61-3.12,1.38-4-.63a2.34,2.34,0,0,0-1-1.25c-.73-.42-.42-1.26-.67-1.89-.16-.37-.07-.88-.58-1.06-.84,2,.18,5.61,1.88,6.76a3.16,3.16,0,0,1,.86.76c.29.46.54.61,1,.27s1.37,0,2.1-.25,1,1.71.24,2.28c-1.1.86-2,2-3.12,2.73a2.31,2.31,0,0,0-1.15,2.28q.12,2.2.18,4.41c0,.59.14,1.24-.48,1.66a22.72,22.72,0,0,1-3.59-9.88C85,290,88.35,281.35,96.48,274.58A16.28,16.28,0,0,1,101.08,271.7Z"/><path class="cls-22" d="M126.29,313.54c.34,2.75-1.54,4.27-3.36,5.73-1.18,1-4,0-4.53-1.5a5.75,5.75,0,0,0-2.43-2.61c-.82-.6-1.54,0-2,.59-.94,1.29-2.46,1.51-3.75,2.13-.78.38-.87-.31-.75-.86.24-1.14.53-2.27.83-3.4.12-.44.24-1-.11-1.23-.94-.7-.33-1.1.18-1.61a14.65,14.65,0,0,1,6.33-3.43,2.16,2.16,0,0,1,2.71.77c.11.18.21.62.66.44,2.57-1.05,3.81.85,5.19,2.38C125.89,311.66,126.74,312.35,126.29,313.54Z"/><path class="cls-22" d="M119.81,303.2c1.44,1.49,3.25,1.52,4.64,2.49a1.32,1.32,0,0,0,.74.16,4.69,4.69,0,0,1,3.36,1.46c.18.17.47.29.26.6a.47.47,0,0,1-.69.15c-2.06-1.45-4.55-.83-6.79-1.4-.3-.08-.65-.09-.77-.39A7.32,7.32,0,0,1,119.81,303.2Z"/><path class="cls-22" d="M115.74,301.87a6.36,6.36,0,0,1,2.66,1.71c.36.39-.27.78-.62,1.05s-.56.92-1.12.3a3.53,3.53,0,0,0-1.57-.87c-.43-.15-1.06-.18-.9-.84A1.54,1.54,0,0,1,115.74,301.87Z"/><path class="cls-22" d="M112.89,305.84c-2.56-.14-3.1-1.82-2.4-4.06.06-.19.16-.3.37-.24s.56.29.53.51c-.2,1.53.9,1.88,2,2.33.41.18,1,.52.84,1S113.32,305.77,112.89,305.84Z"/><path class="cls-22" d="M122.29,287.26a2.42,2.42,0,0,1-.24.85c-.56.71-.24,1.15.34,1.61.31.24.78.54.31,1a1.29,1.29,0,0,1-1.44.2c-.09,0-.23-.24-.21-.26,1-1.16-.54-2.37.06-3.56.18-.36.34-.85.67-.83S122.31,286.82,122.29,287.26Z"/></g></svg>